<?xml version="1.0" encoding="UTF-8" standalone="no"?>
<!DOCTYPE svg PUBLIC "-//W3C//DTD SVG 1.1//EN"
 "http://www.w3.org/Graphics/SVG/1.1/DTD/svg11.dtd">
<!-- Generated by graphviz version 3.0.0 (20220226.1711)
 -->
<!-- Pages: 1 -->
<svg width="246pt" height="214pt"
 viewBox="0.00 0.00 245.70 213.70" xmlns="http://www.w3.org/2000/svg" xmlns:xlink="http://www.w3.org/1999/xlink">
<g id="graph0" class="graph" transform="scale(1 1) rotate(0) translate(4 209.7)">
<polygon fill="white" stroke="transparent" points="-4,4 -4,-209.7 241.7,-209.7 241.7,4 -4,4"/>
<!-- fake -->
<g id="node1" class="node">
<title>fake</title>
</g>
<!-- s0 -->
<g id="node5" class="node">
<title>s0</title>
<ellipse fill="none" stroke="black" cx="118.85" cy="-114.7" rx="27" ry="18"/>
<text text-anchor="middle" x="118.85" y="-111" font-family="Times New Roman,serif" font-size="14.00">s0</text>
</g>
<!-- fake&#45;&gt;s0 -->
<g id="edge1" class="edge">
<title>fake&#45;&gt;s0</title>
<path fill="none" stroke="black" stroke-width="2" d="M118.85,-169.51C118.85,-161.49 118.85,-151.74 118.85,-142.77"/>
<polygon fill="black" stroke="black" stroke-width="2" points="122.35,-142.73 118.85,-132.73 115.35,-142.73 122.35,-142.73"/>
</g>
<!-- s2 -->
<g id="node2" class="node">
<title>s2</title>
<ellipse fill="none" stroke="black" cx="22.85" cy="-22.85" rx="18.72" ry="18.72"/>
<ellipse fill="none" stroke="black" cx="22.85" cy="-22.85" rx="22.7" ry="22.7"/>
<text text-anchor="middle" x="22.85" y="-19.15" font-family="Times New Roman,serif" font-size="14.00">s2</text>
</g>
<!-- s3 -->
<g id="node3" class="node">
<title>s3</title>
<ellipse fill="none" stroke="black" cx="86.85" cy="-22.85" rx="18.72" ry="18.72"/>
<ellipse fill="none" stroke="black" cx="86.85" cy="-22.85" rx="22.7" ry="22.7"/>
<text text-anchor="middle" x="86.85" y="-19.15" font-family="Times New Roman,serif" font-size="14.00">s3</text>
</g>
<!-- s1 -->
<g id="node4" class="node">
<title>s1</title>
<ellipse fill="none" stroke="black" cx="150.85" cy="-22.85" rx="18.72" ry="18.72"/>
<ellipse fill="none" stroke="black" cx="150.85" cy="-22.85" rx="22.7" ry="22.7"/>
<text text-anchor="middle" x="150.85" y="-19.15" font-family="Times New Roman,serif" font-size="14.00">s1</text>
</g>
<!-- s0&#45;&gt;s2 -->
<g id="edge3" class="edge">
<title>s0&#45;&gt;s2</title>
<path fill="none" stroke="black" d="M103.85,-99.66C88.57,-85.36 64.66,-62.98 46.77,-46.24"/>
<polygon fill="black" stroke="black" points="48.72,-43.27 39.02,-38.99 43.93,-48.38 48.72,-43.27"/>
<text text-anchor="middle" x="83.85" y="-67.5" font-family="Times New Roman,serif" font-size="14.00">b</text>
</g>
<!-- s0&#45;&gt;s3 -->
<g id="edge4" class="edge">
<title>s0&#45;&gt;s3</title>
<path fill="none" stroke="black" d="M112.83,-96.8C108.6,-84.93 102.83,-68.73 97.8,-54.61"/>
<polygon fill="black" stroke="black" points="100.96,-53.03 94.3,-44.78 94.36,-55.38 100.96,-53.03"/>
<text text-anchor="middle" x="109.35" y="-67.5" font-family="Times New Roman,serif" font-size="14.00">c</text>
</g>
<!-- s0&#45;&gt;s1 -->
<g id="edge2" class="edge">
<title>s0&#45;&gt;s1</title>
<path fill="none" stroke="black" d="M124.87,-96.8C129.09,-84.93 134.86,-68.73 139.89,-54.61"/>
<polygon fill="black" stroke="black" points="143.33,-55.38 143.39,-44.78 136.74,-53.03 143.33,-55.38"/>
<text text-anchor="middle" x="139.35" y="-67.5" font-family="Times New Roman,serif" font-size="14.00">a</text>
</g>
<!-- s4 -->
<g id="node6" class="node">
<title>s4</title>
<ellipse fill="none" stroke="black" cx="214.85" cy="-22.85" rx="18.72" ry="18.72"/>
<ellipse fill="none" stroke="black" cx="214.85" cy="-22.85" rx="22.7" ry="22.7"/>
<text text-anchor="middle" x="214.85" y="-19.15" font-family="Times New Roman,serif" font-size="14.00">s4</text>
</g>
<!-- s0&#45;&gt;s4 -->
<g id="edge5" class="edge">
<title>s0&#45;&gt;s4</title>
<path fill="none" stroke="black" d="M133.85,-99.66C149.12,-85.36 173.04,-62.98 190.93,-46.24"/>
<polygon fill="black" stroke="black" points="193.76,-48.38 198.67,-38.99 188.98,-43.27 193.76,-48.38"/>
<text text-anchor="middle" x="173.85" y="-67.5" font-family="Times New Roman,serif" font-size="14.00">d</text>
</g>
</g>
</svg>
