<?xml version="1.0" encoding="UTF-8" standalone="no"?>
<!DOCTYPE svg PUBLIC "-//W3C//DTD SVG 1.1//EN"
 "http://www.w3.org/Graphics/SVG/1.1/DTD/svg11.dtd">
<!-- Generated by graphviz version 3.0.0 (20220226.1711)
 -->
<!-- Pages: 1 -->
<svg width="3809pt" height="540pt"
 viewBox="0.00 0.00 3808.78 540.18" xmlns="http://www.w3.org/2000/svg" xmlns:xlink="http://www.w3.org/1999/xlink">
<g id="graph0" class="graph" transform="scale(1 1) rotate(0) translate(4 536.18)">
<polygon fill="white" stroke="transparent" points="-4,4 -4,-536.18 3804.78,-536.18 3804.78,4 -4,4"/>
<!-- fake -->
<g id="node1" class="node">
<title>fake</title>
</g>
<!-- s0 -->
<g id="node4" class="node">
<title>s0</title>
<ellipse fill="none" stroke="black" cx="2082.78" cy="-441.18" rx="27" ry="18"/>
<text text-anchor="middle" x="2082.78" y="-437.48" font-family="Times New Roman,serif" font-size="14.00">s0</text>
</g>
<!-- fake&#45;&gt;s0 -->
<g id="edge1" class="edge">
<title>fake&#45;&gt;s0</title>
<path fill="none" stroke="black" stroke-width="2" d="M2082.78,-496C2082.78,-487.97 2082.78,-478.23 2082.78,-469.25"/>
<polygon fill="black" stroke="black" stroke-width="2" points="2086.28,-469.21 2082.78,-459.21 2079.28,-469.21 2086.28,-469.21"/>
</g>
<!-- s22 -->
<g id="node2" class="node">
<title>s22</title>
<ellipse fill="none" stroke="black" cx="1733.78" cy="-238.99" rx="23.31" ry="23.31"/>
<ellipse fill="none" stroke="black" cx="1733.78" cy="-238.99" rx="27.3" ry="27.3"/>
<text text-anchor="middle" x="1733.78" y="-235.29" font-family="Times New Roman,serif" font-size="14.00">s22</text>
</g>
<!-- s22&#45;&gt;s22 -->
<g id="edge133" class="edge">
<title>s22&#45;&gt;s22</title>
<path fill="none" stroke="black" d="M1759.45,-248.65C1770.13,-249.32 1779.18,-246.1 1779.18,-238.99 1779.18,-234.32 1775.28,-231.33 1769.58,-230.02"/>
<polygon fill="black" stroke="black" points="1769.66,-226.51 1759.45,-229.33 1769.19,-233.5 1769.66,-226.51"/>
<text text-anchor="middle" x="1782.68" y="-235.29" font-family="Times New Roman,serif" font-size="14.00">1</text>
</g>
<!-- s15 -->
<g id="node6" class="node">
<title>s15</title>
<ellipse fill="none" stroke="black" cx="1324.78" cy="-27.4" rx="23.31" ry="23.31"/>
<ellipse fill="none" stroke="black" cx="1324.78" cy="-27.4" rx="27.3" ry="27.3"/>
<text text-anchor="middle" x="1324.78" y="-23.7" font-family="Times New Roman,serif" font-size="14.00">s15</text>
</g>
<!-- s22&#45;&gt;s15 -->
<g id="edge56" class="edge">
<title>s22&#45;&gt;s15</title>
<path fill="none" stroke="black" d="M1712.14,-221.52C1705.89,-217.58 1698.83,-213.86 1691.78,-211.59 1628.61,-191.31 1451.64,-226.05 1393.78,-193.59 1370.14,-180.33 1346.68,-108.46 1334.13,-64"/>
<polygon fill="black" stroke="black" points="1337.45,-62.85 1331.41,-54.15 1330.7,-64.72 1337.45,-62.85"/>
<text text-anchor="middle" x="1372.78" y="-129.49" font-family="Times New Roman,serif" font-size="14.00">d</text>
</g>
<!-- s20 -->
<g id="node7" class="node">
<title>s20</title>
<ellipse fill="none" stroke="black" cx="3355.78" cy="-27.4" rx="23.31" ry="23.31"/>
<ellipse fill="none" stroke="black" cx="3355.78" cy="-27.4" rx="27.3" ry="27.3"/>
<text text-anchor="middle" x="3355.78" y="-23.7" font-family="Times New Roman,serif" font-size="14.00">s20</text>
</g>
<!-- s22&#45;&gt;s20 -->
<g id="edge111" class="edge">
<title>s22&#45;&gt;s20</title>
<path fill="none" stroke="black" d="M1760.23,-231.57C1788.05,-225.15 1833.2,-215.66 1872.78,-211.59 1988.41,-199.7 2804.68,-215.79 2918.78,-193.59 2937.01,-190.04 2940.2,-184.59 2957.78,-178.59 3091.24,-133.07 3133.43,-146.18 3261.78,-87.8 3284.28,-77.56 3307.79,-62.7 3325.67,-50.41"/>
<polygon fill="black" stroke="black" points="3327.77,-53.21 3333.97,-44.61 3323.76,-47.47 3327.77,-53.21"/>
<text text-anchor="middle" x="3220.78" y="-129.49" font-family="Times New Roman,serif" font-size="14.00">i</text>
</g>
<!-- s17 -->
<g id="node9" class="node">
<title>s17</title>
<ellipse fill="none" stroke="black" cx="1673.78" cy="-27.4" rx="23.31" ry="23.31"/>
<ellipse fill="none" stroke="black" cx="1673.78" cy="-27.4" rx="27.3" ry="27.3"/>
<text text-anchor="middle" x="1673.78" y="-23.7" font-family="Times New Roman,serif" font-size="14.00">s17</text>
</g>
<!-- s22&#45;&gt;s17 -->
<g id="edge78" class="edge">
<title>s22&#45;&gt;s17</title>
<path fill="none" stroke="black" d="M1746.46,-214.1C1759.1,-186.86 1774.55,-141.47 1758.78,-105.8 1747.94,-81.26 1725.05,-61.15 1705.75,-47.59"/>
<polygon fill="black" stroke="black" points="1707.44,-44.51 1697.19,-41.82 1703.53,-50.31 1707.44,-44.51"/>
<text text-anchor="middle" x="1768.28" y="-129.49" font-family="Times New Roman,serif" font-size="14.00">f</text>
</g>
<!-- s18 -->
<g id="node10" class="node">
<title>s18</title>
<ellipse fill="none" stroke="black" cx="1828.78" cy="-27.4" rx="23.31" ry="23.31"/>
<ellipse fill="none" stroke="black" cx="1828.78" cy="-27.4" rx="27.3" ry="27.3"/>
<text text-anchor="middle" x="1828.78" y="-23.7" font-family="Times New Roman,serif" font-size="14.00">s18</text>
</g>
<!-- s22&#45;&gt;s18 -->
<g id="edge89" class="edge">
<title>s22&#45;&gt;s18</title>
<path fill="none" stroke="black" d="M1752.91,-218.87C1759.56,-211.44 1766.64,-202.57 1771.78,-193.59 1795.55,-152.08 1811.67,-99.03 1820.54,-64.41"/>
<polygon fill="black" stroke="black" points="1824.04,-64.84 1823.06,-54.29 1817.24,-63.14 1824.04,-64.84"/>
<text text-anchor="middle" x="1812.28" y="-129.49" font-family="Times New Roman,serif" font-size="14.00">g</text>
</g>
<!-- s13 -->
<g id="node13" class="node">
<title>s13</title>
<ellipse fill="none" stroke="black" cx="1251.78" cy="-27.4" rx="23.31" ry="23.31"/>
<ellipse fill="none" stroke="black" cx="1251.78" cy="-27.4" rx="27.3" ry="27.3"/>
<text text-anchor="middle" x="1251.78" y="-23.7" font-family="Times New Roman,serif" font-size="14.00">s13</text>
</g>
<!-- s22&#45;&gt;s13 -->
<g id="edge34" class="edge">
<title>s22&#45;&gt;s13</title>
<path fill="none" stroke="black" d="M1712.15,-221.51C1705.89,-217.56 1698.84,-213.84 1691.78,-211.59 1624.99,-190.26 1442.22,-218.78 1376.78,-193.59 1318.98,-171.35 1282.38,-104.29 1264.62,-62.77"/>
<polygon fill="black" stroke="black" points="1267.76,-61.21 1260.7,-53.31 1261.29,-63.89 1267.76,-61.21"/>
<text text-anchor="middle" x="1330.78" y="-129.49" font-family="Times New Roman,serif" font-size="14.00">b</text>
</g>
<!-- s16 -->
<g id="node15" class="node">
<title>s16</title>
<ellipse fill="none" stroke="black" cx="1397.78" cy="-27.4" rx="23.31" ry="23.31"/>
<ellipse fill="none" stroke="black" cx="1397.78" cy="-27.4" rx="27.3" ry="27.3"/>
<text text-anchor="middle" x="1397.78" y="-23.7" font-family="Times New Roman,serif" font-size="14.00">s16</text>
</g>
<!-- s22&#45;&gt;s16 -->
<g id="edge67" class="edge">
<title>s22&#45;&gt;s16</title>
<path fill="none" stroke="black" d="M1712.14,-221.54C1705.88,-217.59 1698.83,-213.87 1691.78,-211.59 1661.69,-201.88 1430.11,-215.98 1407.78,-193.59 1374.4,-160.12 1379.8,-101.44 1387.91,-63.77"/>
<polygon fill="black" stroke="black" points="1391.39,-64.28 1390.25,-53.75 1384.57,-62.7 1391.39,-64.28"/>
<text text-anchor="middle" x="1391.28" y="-129.49" font-family="Times New Roman,serif" font-size="14.00">e</text>
</g>
<!-- s19 -->
<g id="node16" class="node">
<title>s19</title>
<ellipse fill="none" stroke="black" cx="2540.78" cy="-27.4" rx="23.31" ry="23.31"/>
<ellipse fill="none" stroke="black" cx="2540.78" cy="-27.4" rx="27.3" ry="27.3"/>
<text text-anchor="middle" x="2540.78" y="-23.7" font-family="Times New Roman,serif" font-size="14.00">s19</text>
</g>
<!-- s22&#45;&gt;s19 -->
<g id="edge100" class="edge">
<title>s22&#45;&gt;s19</title>
<path fill="none" stroke="black" d="M1759.44,-228.45C1799.84,-213.53 1876.58,-185.66 1904.78,-178.59 1954.54,-166.13 1968.37,-170.07 2018.78,-160.59 2167.66,-132.59 2205.37,-126.72 2351.78,-87.8 2405.94,-73.4 2467.72,-53.26 2505.48,-40.53"/>
<polygon fill="black" stroke="black" points="2506.66,-43.83 2515.01,-37.3 2504.41,-37.2 2506.66,-43.83"/>
<text text-anchor="middle" x="2283.28" y="-129.49" font-family="Times New Roman,serif" font-size="14.00">h</text>
</g>
<!-- s14 -->
<g id="node21" class="node">
<title>s14</title>
<ellipse fill="none" stroke="black" cx="1470.78" cy="-27.4" rx="23.31" ry="23.31"/>
<ellipse fill="none" stroke="black" cx="1470.78" cy="-27.4" rx="27.3" ry="27.3"/>
<text text-anchor="middle" x="1470.78" y="-23.7" font-family="Times New Roman,serif" font-size="14.00">s14</text>
</g>
<!-- s22&#45;&gt;s14 -->
<g id="edge45" class="edge">
<title>s22&#45;&gt;s14</title>
<path fill="none" stroke="black" d="M1710.99,-222.92C1704.85,-219.06 1698.14,-215.04 1691.78,-211.59 1592.83,-158.03 1565.78,-148.74 1461.78,-105.8 1440.34,-96.94 1426.06,-106.82 1412.78,-87.8 1408.96,-82.33 1409.83,-78.77 1412.78,-72.8 1413.65,-71.04 1427.22,-60.61 1441.02,-50.3"/>
<polygon fill="black" stroke="black" points="1443.14,-53.09 1449.08,-44.31 1438.96,-47.47 1443.14,-53.09"/>
<text text-anchor="middle" x="1595.28" y="-129.49" font-family="Times New Roman,serif" font-size="14.00">c</text>
</g>
<!-- s21 -->
<g id="node24" class="node">
<title>s21</title>
<ellipse fill="none" stroke="black" cx="1697.78" cy="-133.19" rx="23.31" ry="23.31"/>
<ellipse fill="none" stroke="black" cx="1697.78" cy="-133.19" rx="27.3" ry="27.3"/>
<text text-anchor="middle" x="1697.78" y="-129.49" font-family="Times New Roman,serif" font-size="14.00">s21</text>
</g>
<!-- s22&#45;&gt;s21 -->
<g id="edge122" class="edge">
<title>s22&#45;&gt;s21</title>
<path fill="none" stroke="black" d="M1730.78,-211.47C1729.11,-201.02 1726.57,-189.04 1722.78,-178.59 1721.21,-174.26 1719.25,-169.86 1717.11,-165.59"/>
<polygon fill="black" stroke="black" points="1720.07,-163.7 1712.26,-156.55 1713.9,-167.01 1720.07,-163.7"/>
<text text-anchor="middle" x="1731.28" y="-182.39" font-family="Times New Roman,serif" font-size="14.00">0</text>
</g>
<!-- s12 -->
<g id="node25" class="node">
<title>s12</title>
<ellipse fill="none" stroke="black" cx="2187.78" cy="-27.4" rx="23.31" ry="23.31"/>
<ellipse fill="none" stroke="black" cx="2187.78" cy="-27.4" rx="27.3" ry="27.3"/>
<text text-anchor="middle" x="2187.78" y="-23.7" font-family="Times New Roman,serif" font-size="14.00">s12</text>
</g>
<!-- s22&#45;&gt;s12 -->
<g id="edge23" class="edge">
<title>s22&#45;&gt;s12</title>
<path fill="none" stroke="black" d="M1758.83,-226.89C1778.32,-218.14 1805.95,-205.47 1829.78,-193.59 1842.41,-187.29 1845.13,-184.85 1857.78,-178.59 1964.13,-125.97 2092.79,-69.41 2153.24,-43.24"/>
<polygon fill="black" stroke="black" points="2154.89,-46.34 2162.68,-39.16 2152.12,-39.91 2154.89,-46.34"/>
<text text-anchor="middle" x="2011.28" y="-129.49" font-family="Times New Roman,serif" font-size="14.00">a</text>
</g>
<!-- s5 -->
<g id="node3" class="node">
<title>s5</title>
<ellipse fill="none" stroke="black" cx="1202.78" cy="-344.79" rx="27" ry="18"/>
<text text-anchor="middle" x="1202.78" y="-341.09" font-family="Times New Roman,serif" font-size="14.00">s5</text>
</g>
<!-- s5&#45;&gt;s22 -->
<g id="edge127" class="edge">
<title>s5&#45;&gt;s22</title>
<path fill="none" stroke="black" d="M1229.7,-342.99C1314.42,-340.19 1574.61,-329.31 1652.78,-299.39 1672.71,-291.76 1692.09,-277.86 1706.89,-265.42"/>
<polygon fill="black" stroke="black" points="1709.36,-267.91 1714.62,-258.71 1704.77,-262.62 1709.36,-267.91"/>
<text text-anchor="middle" x="1683.28" y="-288.19" font-family="Times New Roman,serif" font-size="14.00">1</text>
</g>
<!-- s5&#45;&gt;s15 -->
<g id="edge50" class="edge">
<title>s5&#45;&gt;s15</title>
<path fill="none" stroke="black" d="M1176.19,-340.89C1140.97,-336.2 1077.74,-324.78 1029.78,-299.39 1014.07,-291.07 921.87,-206.62 909.78,-193.59 897.26,-180.11 891.82,-177.59 884.78,-160.59 869.76,-124.3 847.62,-101.16 874.78,-72.8 906.54,-39.62 1244.35,-69.75 1287.78,-54.8 1290.51,-53.86 1293.21,-52.65 1295.84,-51.26"/>
<polygon fill="black" stroke="black" points="1297.71,-54.22 1304.43,-46.03 1294.07,-48.24 1297.71,-54.22"/>
<text text-anchor="middle" x="913.78" y="-182.39" font-family="Times New Roman,serif" font-size="14.00">d</text>
</g>
<!-- s5&#45;&gt;s20 -->
<g id="edge105" class="edge">
<title>s5&#45;&gt;s20</title>
<path fill="none" stroke="black" d="M1229.97,-342.83C1344.47,-338.68 1787.79,-321.49 1925.78,-299.39 2077.76,-275.04 2108.37,-233.1 2260.78,-211.59 2589.18,-165.24 2676.83,-227.18 3006.78,-193.59 3044.07,-189.79 3052.74,-184.37 3089.78,-178.59 3150.46,-169.13 3171.86,-188.08 3226.78,-160.59 3273.3,-137.3 3312.67,-90.43 3335.27,-59.23"/>
<polygon fill="black" stroke="black" points="3338.26,-61.06 3341.19,-50.88 3332.55,-57.01 3338.26,-61.06"/>
<text text-anchor="middle" x="3091.78" y="-182.39" font-family="Times New Roman,serif" font-size="14.00">i</text>
</g>
<!-- s5&#45;&gt;s17 -->
<g id="edge72" class="edge">
<title>s5&#45;&gt;s17</title>
<path fill="none" stroke="black" d="M1186.38,-330.42C1143.52,-295.41 1031.13,-203.03 1026.78,-193.59 1006.22,-149.01 982.27,-135.18 1074.78,-72.8 1114.61,-45.94 1458.97,-59.55 1506.78,-54.8 1551.91,-50.3 1603.4,-41.62 1637.13,-35.44"/>
<polygon fill="black" stroke="black" points="1637.81,-38.87 1647,-33.61 1636.53,-31.99 1637.81,-38.87"/>
<text text-anchor="middle" x="1029.28" y="-182.39" font-family="Times New Roman,serif" font-size="14.00">f</text>
</g>
<!-- s5&#45;&gt;s18 -->
<g id="edge83" class="edge">
<title>s5&#45;&gt;s18</title>
<path fill="none" stroke="black" d="M1193.03,-327.7C1175.73,-296.87 1143.89,-228.14 1170.78,-178.59 1199.1,-126.41 1226.44,-124.51 1282.78,-105.8 1399.86,-66.91 1441.16,-121.69 1559.78,-87.8 1573.35,-83.92 1574.38,-77.23 1587.78,-72.8 1639.82,-55.6 1655.88,-64.74 1709.78,-54.8 1737.52,-49.68 1768.63,-42.74 1792.08,-37.25"/>
<polygon fill="black" stroke="black" points="1793.02,-40.63 1801.95,-34.93 1791.42,-33.81 1793.02,-40.63"/>
<text text-anchor="middle" x="1174.28" y="-182.39" font-family="Times New Roman,serif" font-size="14.00">g</text>
</g>
<!-- s5&#45;&gt;s13 -->
<g id="edge28" class="edge">
<title>s5&#45;&gt;s13</title>
<path fill="none" stroke="black" d="M1176.18,-341.01C1137.24,-336.25 1063,-324.51 1004.78,-299.39 972.77,-285.58 904.18,-230.32 874.78,-211.59 861.67,-203.24 852.44,-207.12 844.78,-193.59 836.65,-179.23 790.82,-134.05 846.78,-72.8 871.35,-45.9 1118.69,-33.54 1214.32,-29.74"/>
<polygon fill="black" stroke="black" points="1214.55,-33.23 1224.41,-29.35 1214.28,-26.24 1214.55,-33.23"/>
<text text-anchor="middle" x="848.78" y="-182.39" font-family="Times New Roman,serif" font-size="14.00">b</text>
</g>
<!-- s5&#45;&gt;s16 -->
<g id="edge61" class="edge">
<title>s5&#45;&gt;s16</title>
<path fill="none" stroke="black" d="M1176.47,-340.17C1145.46,-334.99 1093.3,-323.3 1054.78,-299.39 1009.42,-271.23 1011.33,-248.53 972.78,-211.59 963.9,-203.09 960.53,-202.23 951.78,-193.59 937.89,-179.87 932.16,-177.72 922.78,-160.59 903.51,-125.4 873.97,-101.72 901.78,-72.8 937.16,-36.01 1312.49,-71.31 1360.78,-54.8 1363.51,-53.86 1366.22,-52.66 1368.85,-51.28"/>
<polygon fill="black" stroke="black" points="1370.71,-54.24 1377.44,-46.05 1367.08,-48.26 1370.71,-54.24"/>
<text text-anchor="middle" x="955.28" y="-182.39" font-family="Times New Roman,serif" font-size="14.00">e</text>
</g>
<!-- s5&#45;&gt;s19 -->
<g id="edge94" class="edge">
<title>s5&#45;&gt;s19</title>
<path fill="none" stroke="black" d="M1229.73,-343.18C1301.77,-341.13 1497.01,-332.58 1550.78,-299.39 1590.79,-274.69 1572.69,-240.48 1609.78,-211.59 1644.05,-184.9 1659.67,-189.25 1701.78,-178.59 1753.21,-165.58 1772.04,-183.73 1819.78,-160.59 1871.22,-135.66 1861.23,-95.3 1913.78,-72.8 1977.21,-45.63 2154.95,-59.66 2223.78,-54.8 2324.86,-47.65 2443.89,-37.19 2503.21,-31.83"/>
<polygon fill="black" stroke="black" points="2503.59,-35.31 2513.24,-30.93 2502.96,-28.34 2503.59,-35.31"/>
<text text-anchor="middle" x="1705.28" y="-182.39" font-family="Times New Roman,serif" font-size="14.00">h</text>
</g>
<!-- s5&#45;&gt;s14 -->
<g id="edge39" class="edge">
<title>s5&#45;&gt;s14</title>
<path fill="none" stroke="black" d="M1176.81,-338.78C1150.48,-332.76 1109.49,-320.69 1079.78,-299.39 1039.22,-270.31 1044.84,-247.1 1009.78,-211.59 1000.9,-202.6 993.19,-205.01 987.78,-193.59 971.88,-160.05 901.42,-164.28 998.78,-72.8 1034.03,-39.67 1388.02,-70.5 1433.78,-54.8 1436.51,-53.86 1439.21,-52.65 1441.84,-51.27"/>
<polygon fill="black" stroke="black" points="1443.71,-54.23 1450.44,-46.04 1440.07,-48.25 1443.71,-54.23"/>
<text text-anchor="middle" x="991.28" y="-182.39" font-family="Times New Roman,serif" font-size="14.00">c</text>
</g>
<!-- s5&#45;&gt;s21 -->
<g id="edge116" class="edge">
<title>s5&#45;&gt;s21</title>
<path fill="none" stroke="black" d="M1229.89,-343.37C1305.92,-341.79 1519.51,-334.27 1578.78,-299.39 1605.94,-283.4 1653,-209.54 1679.06,-166.18"/>
<polygon fill="black" stroke="black" points="1682.17,-167.8 1684.29,-157.42 1676.16,-164.22 1682.17,-167.8"/>
<text text-anchor="middle" x="1653.28" y="-235.29" font-family="Times New Roman,serif" font-size="14.00">0</text>
</g>
<!-- s5&#45;&gt;s12 -->
<g id="edge17" class="edge">
<title>s5&#45;&gt;s12</title>
<path fill="none" stroke="black" d="M1204.39,-326.63C1208.03,-298.16 1219.53,-241.32 1254.78,-211.59 1265.41,-202.63 1488.19,-168.27 1499.78,-160.59 1524.49,-144.23 1512.25,-120.85 1537.78,-105.8 1605.89,-65.62 1639.16,-110.9 1714.78,-87.8 1728.28,-83.67 1729.28,-76.91 1742.78,-72.8 1781.34,-61.05 2050.13,-39.15 2150.28,-31.29"/>
<polygon fill="black" stroke="black" points="2150.57,-34.78 2160.27,-30.51 2150.02,-27.8 2150.57,-34.78"/>
<text text-anchor="middle" x="1418.28" y="-182.39" font-family="Times New Roman,serif" font-size="14.00">a</text>
</g>
<!-- s0&#45;&gt;s5 -->
<g id="edge6" class="edge">
<title>s0&#45;&gt;s5</title>
<path fill="none" stroke="black" d="M2056.5,-436.99C1989.12,-428.83 1804.67,-406.71 1650.78,-390.18 1498.07,-373.78 1315.83,-356.4 1239.38,-349.21"/>
<polygon fill="black" stroke="black" points="1239.59,-345.71 1229.31,-348.26 1238.93,-352.68 1239.59,-345.71"/>
<text text-anchor="middle" x="1785.28" y="-393.98" font-family="Times New Roman,serif" font-size="14.00">e</text>
</g>
<!-- s8 -->
<g id="node5" class="node">
<title>s8</title>
<ellipse fill="none" stroke="black" cx="2818.78" cy="-344.79" rx="27" ry="18"/>
<text text-anchor="middle" x="2818.78" y="-341.09" font-family="Times New Roman,serif" font-size="14.00">s8</text>
</g>
<!-- s0&#45;&gt;s8 -->
<g id="edge9" class="edge">
<title>s0&#45;&gt;s8</title>
<path fill="none" stroke="black" d="M2109.41,-436.77C2221.33,-422.41 2653.77,-366.95 2782.45,-350.44"/>
<polygon fill="black" stroke="black" points="2783.1,-353.89 2792.57,-349.15 2782.21,-346.95 2783.1,-353.89"/>
<text text-anchor="middle" x="2454.28" y="-393.98" font-family="Times New Roman,serif" font-size="14.00">h</text>
</g>
<!-- s9 -->
<g id="node8" class="node">
<title>s9</title>
<ellipse fill="none" stroke="black" cx="304.78" cy="-344.79" rx="18.72" ry="18.72"/>
<ellipse fill="none" stroke="black" cx="304.78" cy="-344.79" rx="22.7" ry="22.7"/>
<text text-anchor="middle" x="304.78" y="-341.09" font-family="Times New Roman,serif" font-size="14.00">s9</text>
</g>
<!-- s0&#45;&gt;s9 -->
<g id="edge10" class="edge">
<title>s0&#45;&gt;s9</title>
<path fill="none" stroke="black" d="M2055.42,-439.76C1904.13,-437.24 1154.75,-422.66 544.78,-372.18 470.56,-366.04 383.77,-355.71 337.6,-349.96"/>
<polygon fill="black" stroke="black" points="337.93,-346.48 327.57,-348.71 337.06,-353.42 337.93,-346.48"/>
<text text-anchor="middle" x="1011.78" y="-393.98" font-family="Times New Roman,serif" font-size="14.00">i</text>
</g>
<!-- s11 -->
<g id="node11" class="node">
<title>s11</title>
<ellipse fill="none" stroke="black" cx="3727.78" cy="-344.79" rx="23.31" ry="23.31"/>
<ellipse fill="none" stroke="black" cx="3727.78" cy="-344.79" rx="27.3" ry="27.3"/>
<text text-anchor="middle" x="3727.78" y="-341.09" font-family="Times New Roman,serif" font-size="14.00">s11</text>
</g>
<!-- s0&#45;&gt;s11 -->
<g id="edge12" class="edge">
<title>s0&#45;&gt;s11</title>
<path fill="none" stroke="black" d="M2109.77,-439.27C2221.02,-435.5 2655.02,-420.57 3011.78,-405.18 3313.63,-392.16 3405.36,-471.27 3690.78,-372.18 3693.51,-371.24 3696.21,-370.02 3698.84,-368.64"/>
<polygon fill="black" stroke="black" points="3700.71,-371.59 3707.43,-363.4 3697.07,-365.62 3700.71,-371.59"/>
<text text-anchor="middle" x="3630.28" y="-393.98" font-family="Times New Roman,serif" font-size="14.00">1</text>
</g>
<!-- s6 -->
<g id="node12" class="node">
<title>s6</title>
<ellipse fill="none" stroke="black" cx="580.78" cy="-344.79" rx="27" ry="18"/>
<text text-anchor="middle" x="580.78" y="-341.09" font-family="Times New Roman,serif" font-size="14.00">s6</text>
</g>
<!-- s0&#45;&gt;s6 -->
<g id="edge7" class="edge">
<title>s0&#45;&gt;s6</title>
<path fill="none" stroke="black" d="M2055.78,-438.99C1962.55,-434.85 1645.48,-420.48 1383.78,-405.18 1164.11,-392.35 1109.19,-388.88 889.78,-372.18 791.48,-364.7 675.72,-354.42 617.76,-349.17"/>
<polygon fill="black" stroke="black" points="617.91,-345.67 607.63,-348.25 617.28,-352.64 617.91,-345.67"/>
<text text-anchor="middle" x="1386.28" y="-393.98" font-family="Times New Roman,serif" font-size="14.00">f</text>
</g>
<!-- s1 -->
<g id="node17" class="node">
<title>s1</title>
<ellipse fill="none" stroke="black" cx="2444.78" cy="-344.79" rx="27" ry="18"/>
<text text-anchor="middle" x="2444.78" y="-341.09" font-family="Times New Roman,serif" font-size="14.00">s1</text>
</g>
<!-- s0&#45;&gt;s1 -->
<g id="edge2" class="edge">
<title>s0&#45;&gt;s1</title>
<path fill="none" stroke="black" d="M2107.66,-433.7C2170.69,-417.26 2336.81,-373.94 2409.67,-354.94"/>
<polygon fill="black" stroke="black" points="2410.93,-358.23 2419.72,-352.32 2409.16,-351.46 2410.93,-358.23"/>
<text text-anchor="middle" x="2267.28" y="-393.98" font-family="Times New Roman,serif" font-size="14.00">a</text>
</g>
<!-- s7 -->
<g id="node18" class="node">
<title>s7</title>
<ellipse fill="none" stroke="black" cx="2082.78" cy="-344.79" rx="27" ry="18"/>
<text text-anchor="middle" x="2082.78" y="-341.09" font-family="Times New Roman,serif" font-size="14.00">s7</text>
</g>
<!-- s0&#45;&gt;s7 -->
<g id="edge8" class="edge">
<title>s0&#45;&gt;s7</title>
<path fill="none" stroke="black" d="M2082.78,-422.87C2082.78,-409.03 2082.78,-389.37 2082.78,-373.37"/>
<polygon fill="black" stroke="black" points="2086.28,-372.99 2082.78,-362.99 2079.28,-372.99 2086.28,-372.99"/>
<text text-anchor="middle" x="2086.28" y="-393.98" font-family="Times New Roman,serif" font-size="14.00">g</text>
</g>
<!-- s2 -->
<g id="node20" class="node">
<title>s2</title>
<ellipse fill="none" stroke="black" cx="925.78" cy="-344.79" rx="27" ry="18"/>
<text text-anchor="middle" x="925.78" y="-341.09" font-family="Times New Roman,serif" font-size="14.00">s2</text>
</g>
<!-- s0&#45;&gt;s2 -->
<g id="edge3" class="edge">
<title>s0&#45;&gt;s2</title>
<path fill="none" stroke="black" d="M2055.78,-438.53C1945.39,-431.68 1517.72,-404.42 1166.78,-372.18 1094.11,-365.51 1009.32,-355.77 962.17,-350.17"/>
<polygon fill="black" stroke="black" points="962.48,-346.69 952.14,-348.98 961.66,-353.64 962.48,-346.69"/>
<text text-anchor="middle" x="1548.78" y="-393.98" font-family="Times New Roman,serif" font-size="14.00">b</text>
</g>
<!-- s3 -->
<g id="node22" class="node">
<title>s3</title>
<ellipse fill="none" stroke="black" cx="3264.78" cy="-344.79" rx="27" ry="18"/>
<text text-anchor="middle" x="3264.78" y="-341.09" font-family="Times New Roman,serif" font-size="14.00">s3</text>
</g>
<!-- s0&#45;&gt;s3 -->
<g id="edge4" class="edge">
<title>s0&#45;&gt;s3</title>
<path fill="none" stroke="black" d="M2109.41,-438.06C2264.3,-425.69 3048.63,-363.05 3228.15,-348.71"/>
<polygon fill="black" stroke="black" points="3228.45,-352.2 3238.14,-347.91 3227.9,-345.22 3228.45,-352.2"/>
<text text-anchor="middle" x="2677.28" y="-393.98" font-family="Times New Roman,serif" font-size="14.00">c</text>
</g>
<!-- s10 -->
<g id="node23" class="node">
<title>s10</title>
<ellipse fill="none" stroke="black" cx="3654.78" cy="-344.79" rx="23.31" ry="23.31"/>
<ellipse fill="none" stroke="black" cx="3654.78" cy="-344.79" rx="27.3" ry="27.3"/>
<text text-anchor="middle" x="3654.78" y="-341.09" font-family="Times New Roman,serif" font-size="14.00">s10</text>
</g>
<!-- s0&#45;&gt;s10 -->
<g id="edge11" class="edge">
<title>s0&#45;&gt;s10</title>
<path fill="none" stroke="black" d="M2109.8,-438.86C2240.87,-432.41 2823.68,-403.29 3300.78,-372.18 3416.13,-364.66 3552.47,-353.99 3617.14,-348.82"/>
<polygon fill="black" stroke="black" points="3617.56,-352.3 3627.25,-348.01 3617,-345.32 3617.56,-352.3"/>
<text text-anchor="middle" x="3004.28" y="-393.98" font-family="Times New Roman,serif" font-size="14.00">0</text>
</g>
<!-- s4 -->
<g id="node26" class="node">
<title>s4</title>
<ellipse fill="none" stroke="black" cx="1782.78" cy="-344.79" rx="27" ry="18"/>
<text text-anchor="middle" x="1782.78" y="-341.09" font-family="Times New Roman,serif" font-size="14.00">s4</text>
</g>
<!-- s0&#45;&gt;s4 -->
<g id="edge5" class="edge">
<title>s0&#45;&gt;s4</title>
<path fill="none" stroke="black" d="M2058.74,-432.62C2005.53,-415.87 1877.69,-375.65 1816.51,-356.4"/>
<polygon fill="black" stroke="black" points="1817.53,-353.05 1806.94,-353.39 1815.43,-359.73 1817.53,-353.05"/>
<text text-anchor="middle" x="1972.78" y="-393.98" font-family="Times New Roman,serif" font-size="14.00">d</text>
</g>
<!-- s8&#45;&gt;s22 -->
<g id="edge130" class="edge">
<title>s8&#45;&gt;s22</title>
<path fill="none" stroke="black" d="M2792.1,-341.34C2701.33,-333.06 2396.13,-305.36 2143.78,-284.39 2041.6,-275.89 2015.67,-277.83 1913.78,-266.39 1864.22,-260.82 1807.31,-252.08 1770.98,-246.19"/>
<polygon fill="black" stroke="black" points="1771.28,-242.7 1760.85,-244.54 1770.15,-249.61 1771.28,-242.7"/>
<text text-anchor="middle" x="2314.28" y="-288.19" font-family="Times New Roman,serif" font-size="14.00">1</text>
</g>
<!-- s8&#45;&gt;s15 -->
<g id="edge53" class="edge">
<title>s8&#45;&gt;s15</title>
<path fill="none" stroke="black" d="M2805.58,-328.57C2798.53,-320.18 2789.86,-309.45 2782.78,-299.39 2772.91,-285.36 2771.41,-281.21 2762.78,-266.39 2712.22,-179.49 2733.68,-121.59 2645.78,-72.8 2583.41,-38.17 1429.57,-77.02 1361.78,-54.8 1359.04,-53.9 1356.33,-52.72 1353.69,-51.35"/>
<polygon fill="black" stroke="black" points="1355.46,-48.33 1345.09,-46.16 1351.84,-54.32 1355.46,-48.33"/>
<text text-anchor="middle" x="2734.78" y="-182.39" font-family="Times New Roman,serif" font-size="14.00">d</text>
</g>
<!-- s8&#45;&gt;s20 -->
<g id="edge108" class="edge">
<title>s8&#45;&gt;s20</title>
<path fill="none" stroke="black" d="M2845.8,-344.01C2918.65,-344.03 3124.73,-340.17 3289.78,-299.39 3409.7,-269.76 3460.11,-281.6 3546.78,-193.59 3584.67,-155.12 3593.66,-114.84 3559.78,-72.8 3539.26,-47.33 3446.29,-35.7 3393.22,-31.06"/>
<polygon fill="black" stroke="black" points="3393.42,-27.57 3383.17,-30.22 3392.84,-34.54 3393.42,-27.57"/>
<text text-anchor="middle" x="3561.78" y="-182.39" font-family="Times New Roman,serif" font-size="14.00">i</text>
</g>
<!-- s8&#45;&gt;s17 -->
<g id="edge75" class="edge">
<title>s8&#45;&gt;s17</title>
<path fill="none" stroke="black" d="M2839.42,-332.99C2851.58,-325.4 2865.89,-313.98 2872.78,-299.39 2875.63,-293.36 2874.29,-290.88 2872.78,-284.39 2860.71,-232.47 2805.69,-99.89 2759.78,-72.8 2713.51,-45.48 1846.14,-61.15 1792.78,-54.8 1764.59,-51.44 1733.27,-44.35 1709.84,-38.37"/>
<polygon fill="black" stroke="black" points="1710.55,-34.93 1699.99,-35.8 1708.78,-41.71 1710.55,-34.93"/>
<text text-anchor="middle" x="2843.28" y="-182.39" font-family="Times New Roman,serif" font-size="14.00">f</text>
</g>
<!-- s8&#45;&gt;s18 -->
<g id="edge86" class="edge">
<title>s8&#45;&gt;s18</title>
<path fill="none" stroke="black" d="M2845.76,-342.88C2875.6,-340.26 2922.4,-331 2944.78,-299.39 2967.33,-267.54 2964.91,-245.02 2944.78,-211.59 2935.96,-196.94 2924.43,-203.89 2910.78,-193.59 2851.36,-148.77 2862.84,-102.93 2794.78,-72.8 2762.1,-58.33 2187.46,-56.75 2151.78,-54.8 2048.17,-49.12 1926.21,-37.92 1866.11,-32.1"/>
<polygon fill="black" stroke="black" points="1866.26,-28.6 1855.97,-31.12 1865.58,-35.57 1866.26,-28.6"/>
<text text-anchor="middle" x="2914.28" y="-182.39" font-family="Times New Roman,serif" font-size="14.00">g</text>
</g>
<!-- s8&#45;&gt;s13 -->
<g id="edge31" class="edge">
<title>s8&#45;&gt;s13</title>
<path fill="none" stroke="black" d="M2803.31,-329.81C2793.66,-321.08 2780.98,-309.59 2769.78,-299.39 2753.74,-284.77 2748.42,-282.41 2733.78,-266.39 2700.67,-230.15 2706.92,-206.84 2666.78,-178.59 2539.79,-89.21 2487.03,-97.91 2333.78,-72.8 2219.18,-54.02 1399.07,-91.16 1288.78,-54.8 1286.04,-53.89 1283.33,-52.71 1280.69,-51.34"/>
<polygon fill="black" stroke="black" points="1282.46,-48.32 1272.09,-46.14 1278.84,-54.31 1282.46,-48.32"/>
<text text-anchor="middle" x="2688.78" y="-182.39" font-family="Times New Roman,serif" font-size="14.00">b</text>
</g>
<!-- s8&#45;&gt;s16 -->
<g id="edge64" class="edge">
<title>s8&#45;&gt;s16</title>
<path fill="none" stroke="black" d="M2808.43,-327.72C2803.34,-319.45 2797.34,-309.09 2792.78,-299.39 2745.23,-198.26 2780.92,-128.05 2683.78,-72.8 2623.46,-38.49 1500.72,-76.43 1434.78,-54.8 1432.04,-53.9 1429.33,-52.72 1426.69,-51.35"/>
<polygon fill="black" stroke="black" points="1428.46,-48.33 1418.09,-46.15 1424.84,-54.32 1428.46,-48.33"/>
<text text-anchor="middle" x="2766.28" y="-182.39" font-family="Times New Roman,serif" font-size="14.00">e</text>
</g>
<!-- s8&#45;&gt;s19 -->
<g id="edge97" class="edge">
<title>s8&#45;&gt;s19</title>
<path fill="none" stroke="black" d="M2845.73,-341.57C2961.21,-331.42 3406.93,-285.16 3372.78,-178.59 3353.13,-117.27 3334.57,-94.05 3273.78,-72.8 3143.55,-27.27 2709.66,-26.99 2578.6,-27.99"/>
<polygon fill="black" stroke="black" points="2578.24,-24.49 2568.27,-28.08 2578.3,-31.49 2578.24,-24.49"/>
<text text-anchor="middle" x="3378.28" y="-182.39" font-family="Times New Roman,serif" font-size="14.00">h</text>
</g>
<!-- s8&#45;&gt;s14 -->
<g id="edge42" class="edge">
<title>s8&#45;&gt;s14</title>
<path fill="none" stroke="black" d="M2815.81,-326.59C2811.34,-301.28 2802.39,-252.58 2792.78,-211.59 2776.97,-144.13 2781.61,-107.74 2721.78,-72.8 2695.78,-57.61 1667.78,-57.4 1637.78,-54.8 1592.6,-50.87 1541.12,-42.07 1507.4,-35.7"/>
<polygon fill="black" stroke="black" points="1508.02,-32.26 1497.54,-33.81 1506.7,-39.13 1508.02,-32.26"/>
<text text-anchor="middle" x="2792.28" y="-182.39" font-family="Times New Roman,serif" font-size="14.00">c</text>
</g>
<!-- s8&#45;&gt;s21 -->
<g id="edge119" class="edge">
<title>s8&#45;&gt;s21</title>
<path fill="none" stroke="black" d="M2792.1,-341.42C2763.04,-337.48 2716.97,-327.01 2688.78,-299.39 2647.97,-259.4 2691.26,-211.83 2644.78,-178.59 2604.55,-149.82 1802.97,-171.72 1754.78,-160.59 1746.55,-158.69 1738.07,-155.52 1730.26,-152.03"/>
<polygon fill="black" stroke="black" points="1731.66,-148.81 1721.12,-147.66 1728.64,-155.13 1731.66,-148.81"/>
<text text-anchor="middle" x="2674.28" y="-235.29" font-family="Times New Roman,serif" font-size="14.00">0</text>
</g>
<!-- s8&#45;&gt;s12 -->
<g id="edge20" class="edge">
<title>s8&#45;&gt;s12</title>
<path fill="none" stroke="black" d="M2845.08,-340.49C2886.98,-334.65 2965.9,-321.01 2982.78,-299.39 3015.81,-257.06 3018,-220.77 2984.78,-178.59 2860.6,-20.93 2743.24,-108.71 2545.78,-72.8 2429.92,-51.72 2291.12,-37.65 2225.59,-31.67"/>
<polygon fill="black" stroke="black" points="2225.61,-28.16 2215.34,-30.74 2224.98,-35.13 2225.61,-28.16"/>
<text text-anchor="middle" x="2999.28" y="-182.39" font-family="Times New Roman,serif" font-size="14.00">a</text>
</g>
<!-- s9&#45;&gt;s22 -->
<g id="edge131" class="edge">
<title>s9&#45;&gt;s22</title>
<path fill="none" stroke="black" d="M327.57,-340.82C370.16,-335.37 464.76,-323.76 544.78,-317.39 840.21,-293.84 914.7,-297.25 1210.78,-284.39 1264.32,-282.06 1641.66,-282.46 1692.78,-266.39 1696.58,-265.19 1700.37,-263.55 1704.02,-261.65"/>
<polygon fill="black" stroke="black" points="1705.87,-264.63 1712.74,-256.56 1702.34,-258.58 1705.87,-264.63"/>
<text text-anchor="middle" x="1214.28" y="-288.19" font-family="Times New Roman,serif" font-size="14.00">1</text>
</g>
<!-- s9&#45;&gt;s15 -->
<g id="edge54" class="edge">
<title>s9&#45;&gt;s15</title>
<path fill="none" stroke="black" d="M282.76,-337.78C250.33,-327.91 189.59,-305.35 152.78,-266.39 93.56,-203.7 63.65,-113.3 139.78,-72.8 196.09,-42.84 1227.19,-74.72 1287.78,-54.8 1290.52,-53.89 1293.23,-52.71 1295.87,-51.35"/>
<polygon fill="black" stroke="black" points="1297.72,-54.32 1304.47,-46.15 1294.1,-48.33 1297.72,-54.32"/>
<text text-anchor="middle" x="108.78" y="-182.39" font-family="Times New Roman,serif" font-size="14.00">d</text>
</g>
<!-- s9&#45;&gt;s20 -->
<g id="edge109" class="edge">
<title>s9&#45;&gt;s20</title>
<path fill="none" stroke="black" d="M325.21,-333.75C387.68,-303.62 582.34,-213.9 754.78,-178.59 812.79,-166.72 828.12,-168.65 886.78,-160.59 1062.8,-136.41 1105.78,-121.31 1282.78,-105.8 1496.33,-87.08 1553.3,-122.88 1764.78,-87.8 1787.67,-84 1791.87,-76.44 1814.78,-72.8 1982.06,-46.22 2407.47,-59.66 2576.78,-54.8 2861.79,-46.6 3205.35,-34.01 3318.01,-29.82"/>
<polygon fill="black" stroke="black" points="3318.32,-33.31 3328.19,-29.44 3318.06,-26.31 3318.32,-33.31"/>
<text text-anchor="middle" x="756.78" y="-182.39" font-family="Times New Roman,serif" font-size="14.00">i</text>
</g>
<!-- s9&#45;&gt;s17 -->
<g id="edge76" class="edge">
<title>s9&#45;&gt;s17</title>
<path fill="none" stroke="black" d="M289.11,-327.96C282.38,-320.07 275.28,-309.96 271.78,-299.39 244.03,-215.53 245.69,-158.23 316.78,-105.8 403.07,-42.14 448.88,-81.16 555.78,-72.8 977.24,-39.83 1085.67,-91.89 1506.78,-54.8 1551.96,-50.82 1603.44,-42.02 1637.16,-35.68"/>
<polygon fill="black" stroke="black" points="1637.86,-39.11 1647.02,-33.8 1636.54,-32.23 1637.86,-39.11"/>
<text text-anchor="middle" x="263.28" y="-182.39" font-family="Times New Roman,serif" font-size="14.00">f</text>
</g>
<!-- s9&#45;&gt;s18 -->
<g id="edge87" class="edge">
<title>s9&#45;&gt;s18</title>
<path fill="none" stroke="black" d="M298.67,-322.68C290.01,-287.89 278.93,-218.42 314.78,-178.59 377.01,-109.45 627.63,-85.49 719.78,-72.8 937.76,-42.78 1491.28,-80.75 1709.78,-54.8 1737.97,-51.45 1769.29,-44.36 1792.72,-38.37"/>
<polygon fill="black" stroke="black" points="1793.78,-41.71 1802.57,-35.8 1792.01,-34.94 1793.78,-41.71"/>
<text text-anchor="middle" x="318.28" y="-182.39" font-family="Times New Roman,serif" font-size="14.00">g</text>
</g>
<!-- s9&#45;&gt;s13 -->
<g id="edge32" class="edge">
<title>s9&#45;&gt;s13</title>
<path fill="none" stroke="black" d="M281.81,-344.7C237.39,-345.41 138.08,-341.7 69.78,-299.39 -15.86,-246.34 -27.21,-116.03 63.78,-72.8 116.92,-47.54 1018.17,-32.05 1214.3,-28.97"/>
<polygon fill="black" stroke="black" points="1214.46,-32.46 1224.4,-28.81 1214.35,-25.47 1214.46,-32.46"/>
<text text-anchor="middle" x="5.78" y="-182.39" font-family="Times New Roman,serif" font-size="14.00">b</text>
</g>
<!-- s9&#45;&gt;s16 -->
<g id="edge65" class="edge">
<title>s9&#45;&gt;s16</title>
<path fill="none" stroke="black" d="M282.03,-341.17C256.76,-336.99 216.77,-326.29 195.78,-299.39 164.81,-259.68 158.01,-106.1 195.78,-72.8 220.05,-51.39 1330.03,-64.9 1360.78,-54.8 1363.52,-53.89 1366.23,-52.71 1368.87,-51.35"/>
<polygon fill="black" stroke="black" points="1370.72,-54.32 1377.47,-46.15 1367.1,-48.33 1370.72,-54.32"/>
<text text-anchor="middle" x="174.28" y="-182.39" font-family="Times New Roman,serif" font-size="14.00">e</text>
</g>
<!-- s9&#45;&gt;s19 -->
<g id="edge98" class="edge">
<title>s9&#45;&gt;s19</title>
<path fill="none" stroke="black" d="M315.37,-324.4C334.72,-289.34 374.78,-218.37 385.78,-211.59 426.21,-186.65 552.44,-204.03 598.78,-193.59 617.3,-189.42 620.48,-183.65 638.78,-178.59 812.1,-130.66 857.97,-124.85 1036.78,-105.8 1163.46,-92.3 1486.72,-120.74 1609.78,-87.8 1623.42,-84.14 1624.14,-76.44 1637.78,-72.8 1700.71,-55.97 2158.74,-58.5 2223.78,-54.8 2324.95,-49.03 2443.94,-37.97 2503.23,-32.17"/>
<polygon fill="black" stroke="black" points="2503.64,-35.64 2513.25,-31.18 2502.96,-28.68 2503.64,-35.64"/>
<text text-anchor="middle" x="642.28" y="-182.39" font-family="Times New Roman,serif" font-size="14.00">h</text>
</g>
<!-- s9&#45;&gt;s14 -->
<g id="edge43" class="edge">
<title>s9&#45;&gt;s14</title>
<path fill="none" stroke="black" d="M283.46,-336.24C267.11,-329.28 245.43,-317.31 233.78,-299.39 206.34,-257.17 196.01,-106.09 233.78,-72.8 258.79,-50.75 1402.11,-65.2 1433.78,-54.8 1436.52,-53.9 1439.23,-52.71 1441.87,-51.35"/>
<polygon fill="black" stroke="black" points="1443.72,-54.32 1450.47,-46.15 1440.1,-48.33 1443.72,-54.32"/>
<text text-anchor="middle" x="213.28" y="-182.39" font-family="Times New Roman,serif" font-size="14.00">c</text>
</g>
<!-- s9&#45;&gt;s21 -->
<g id="edge120" class="edge">
<title>s9&#45;&gt;s21</title>
<path fill="none" stroke="black" d="M327.18,-339.24C405.08,-323.17 670.88,-266.07 882.78,-193.59 898.79,-188.11 901.25,-182.21 917.78,-178.59 1066.53,-146.02 1452.19,-183.14 1602.78,-160.59 1622.73,-157.6 1644.45,-151.77 1662.08,-146.35"/>
<polygon fill="black" stroke="black" points="1663.47,-149.58 1671.94,-143.22 1661.35,-142.91 1663.47,-149.58"/>
<text text-anchor="middle" x="827.28" y="-235.29" font-family="Times New Roman,serif" font-size="14.00">0</text>
</g>
<!-- s9&#45;&gt;s12 -->
<g id="edge21" class="edge">
<title>s9&#45;&gt;s12</title>
<path fill="none" stroke="black" d="M306.2,-321.62C309.21,-292.68 318.58,-242.11 347.78,-211.59 371.43,-186.87 519.47,-133.28 656.78,-105.8 920.24,-53.06 1596.46,-68.84 1864.78,-54.8 1968.4,-49.37 2090.36,-38.06 2150.45,-32.16"/>
<polygon fill="black" stroke="black" points="2150.98,-35.63 2160.59,-31.16 2150.3,-28.66 2150.98,-35.63"/>
<text text-anchor="middle" x="413.28" y="-182.39" font-family="Times New Roman,serif" font-size="14.00">a</text>
</g>
<!-- s23 -->
<g id="node14" class="node">
<title>s23</title>
<ellipse fill="none" stroke="black" cx="3676.78" cy="-238.99" rx="23.31" ry="23.31"/>
<ellipse fill="none" stroke="black" cx="3676.78" cy="-238.99" rx="27.3" ry="27.3"/>
<text text-anchor="middle" x="3676.78" y="-235.29" font-family="Times New Roman,serif" font-size="14.00">s23</text>
</g>
<!-- s11&#45;&gt;s23 -->
<g id="edge135" class="edge">
<title>s11&#45;&gt;s23</title>
<path fill="none" stroke="black" d="M3716.08,-319.97C3709.26,-306.09 3700.56,-288.38 3693.08,-273.15"/>
<polygon fill="black" stroke="black" points="3696.15,-271.48 3688.6,-264.05 3689.87,-274.57 3696.15,-271.48"/>
<text text-anchor="middle" x="3709.28" y="-288.19" font-family="Times New Roman,serif" font-size="14.00">0</text>
</g>
<!-- s24 -->
<g id="node19" class="node">
<title>s24</title>
<ellipse fill="none" stroke="black" cx="3744.78" cy="-133.19" rx="23.31" ry="23.31"/>
<ellipse fill="none" stroke="black" cx="3744.78" cy="-133.19" rx="27.3" ry="27.3"/>
<text text-anchor="middle" x="3744.78" y="-129.49" font-family="Times New Roman,serif" font-size="14.00">s24</text>
</g>
<!-- s11&#45;&gt;s24 -->
<g id="edge139" class="edge">
<title>s11&#45;&gt;s24</title>
<path fill="none" stroke="black" d="M3750.99,-330.17C3761.56,-322.59 3772.99,-312.1 3778.78,-299.39 3801.03,-250.53 3796.01,-229.44 3778.78,-178.59 3776.74,-172.56 3773.5,-166.7 3769.83,-161.32"/>
<polygon fill="black" stroke="black" points="3772.61,-159.2 3763.8,-153.32 3767.02,-163.41 3772.61,-159.2"/>
<text text-anchor="middle" x="3797.28" y="-235.29" font-family="Times New Roman,serif" font-size="14.00">1</text>
</g>
<!-- s6&#45;&gt;s22 -->
<g id="edge128" class="edge">
<title>s6&#45;&gt;s22</title>
<path fill="none" stroke="black" d="M607.63,-341.29C661.24,-336.36 785.35,-325.16 889.78,-317.39 912.07,-315.73 1671.55,-273.37 1692.78,-266.39 1696.37,-265.21 1699.95,-263.64 1703.42,-261.85"/>
<polygon fill="black" stroke="black" points="1705.38,-264.76 1712.27,-256.72 1701.87,-258.7 1705.38,-264.76"/>
<text text-anchor="middle" x="1433.28" y="-288.19" font-family="Times New Roman,serif" font-size="14.00">1</text>
</g>
<!-- s6&#45;&gt;s15 -->
<g id="edge51" class="edge">
<title>s6&#45;&gt;s15</title>
<path fill="none" stroke="black" d="M553.64,-344.38C473.84,-344.46 239.48,-332.42 141.78,-193.59 130.98,-178.24 91.88,-130.4 157.78,-72.8 181.42,-52.14 1257.96,-64.61 1287.78,-54.8 1290.52,-53.89 1293.23,-52.71 1295.87,-51.35"/>
<polygon fill="black" stroke="black" points="1297.72,-54.32 1304.47,-46.15 1294.1,-48.33 1297.72,-54.32"/>
<text text-anchor="middle" x="145.78" y="-182.39" font-family="Times New Roman,serif" font-size="14.00">d</text>
</g>
<!-- s6&#45;&gt;s20 -->
<g id="edge106" class="edge">
<title>s6&#45;&gt;s20</title>
<path fill="none" stroke="black" d="M606.1,-338.43C663.47,-326.24 807.74,-295.21 927.78,-266.39 1022.83,-243.57 1044.24,-226.92 1140.78,-211.59 1266.13,-191.69 1302.04,-221.8 1425.78,-193.59 1443.08,-189.65 1445.64,-183.2 1462.78,-178.59 1518.26,-163.69 1537.83,-182.88 1590.78,-160.59 1627.52,-145.12 1624.59,-120.14 1661.78,-105.8 1756.62,-69.22 1789.92,-106.79 1889.78,-87.8 1912.15,-83.54 1916.31,-76.48 1938.78,-72.8 2078.74,-49.83 2435.01,-59.2 2576.78,-54.8 2861.77,-45.95 3205.35,-33.78 3318.01,-29.75"/>
<polygon fill="black" stroke="black" points="3318.32,-33.25 3328.18,-29.39 3318.07,-26.25 3318.32,-33.25"/>
<text text-anchor="middle" x="1464.78" y="-182.39" font-family="Times New Roman,serif" font-size="14.00">i</text>
</g>
<!-- s6&#45;&gt;s17 -->
<g id="edge73" class="edge">
<title>s6&#45;&gt;s17</title>
<path fill="none" stroke="black" d="M559.65,-333.24C540.73,-322.25 517.44,-303.93 527.78,-284.39 554.68,-233.55 585.89,-241.9 634.78,-211.59 648.65,-202.99 654.5,-204.34 666.78,-193.59 703.5,-161.43 691.25,-131.45 732.78,-105.8 850.17,-33.3 1143.04,-88.93 1506.78,-54.8 1551.94,-50.56 1603.42,-41.82 1637.14,-35.56"/>
<polygon fill="black" stroke="black" points="1637.83,-38.99 1647.01,-33.7 1636.54,-32.11 1637.83,-38.99"/>
<text text-anchor="middle" x="683.28" y="-182.39" font-family="Times New Roman,serif" font-size="14.00">f</text>
</g>
<!-- s6&#45;&gt;s18 -->
<g id="edge84" class="edge">
<title>s6&#45;&gt;s18</title>
<path fill="none" stroke="black" d="M605.14,-336.9C637.97,-326.52 696.46,-303.97 732.78,-266.39 762.71,-235.42 744,-209.7 773.78,-178.59 844.14,-105.1 878.27,-98.21 976.78,-72.8 1055.67,-52.44 1628.91,-64.66 1709.78,-54.8 1737.96,-51.36 1769.28,-44.27 1792.72,-38.31"/>
<polygon fill="black" stroke="black" points="1793.77,-41.65 1802.57,-35.75 1792.01,-34.88 1793.77,-41.65"/>
<text text-anchor="middle" x="777.28" y="-182.39" font-family="Times New Roman,serif" font-size="14.00">g</text>
</g>
<!-- s6&#45;&gt;s13 -->
<g id="edge29" class="edge">
<title>s6&#45;&gt;s13</title>
<path fill="none" stroke="black" d="M554.44,-340.73C509.73,-335.58 416.09,-325.01 336.78,-317.39 289.28,-312.82 162.69,-325.55 122.78,-299.39 37.19,-243.28 5.47,-140.99 81.78,-72.8 124.96,-34.2 1018.75,-29.14 1214.23,-28.49"/>
<polygon fill="black" stroke="black" points="1214.31,-31.99 1224.3,-28.46 1214.29,-24.99 1214.31,-31.99"/>
<text text-anchor="middle" x="46.78" y="-182.39" font-family="Times New Roman,serif" font-size="14.00">b</text>
</g>
<!-- s6&#45;&gt;s16 -->
<g id="edge62" class="edge">
<title>s6&#45;&gt;s16</title>
<path fill="none" stroke="black" d="M554.31,-341.15C527.5,-337 486.93,-326.4 464.78,-299.39 434.53,-262.51 450.79,-241.12 446.78,-193.59 440.41,-118.18 496.3,-100.35 566.78,-72.8 648.97,-40.67 1277.05,-82.65 1360.78,-54.8 1363.52,-53.89 1366.23,-52.7 1368.86,-51.33"/>
<polygon fill="black" stroke="black" points="1370.72,-54.29 1377.46,-46.12 1367.1,-48.31 1370.72,-54.29"/>
<text text-anchor="middle" x="450.28" y="-182.39" font-family="Times New Roman,serif" font-size="14.00">e</text>
</g>
<!-- s6&#45;&gt;s19 -->
<g id="edge95" class="edge">
<title>s6&#45;&gt;s19</title>
<path fill="none" stroke="black" d="M605.29,-337.15C635.62,-328.83 688.76,-313.9 733.78,-299.39 867.55,-256.28 902.11,-247.79 1031.78,-193.59 1045.9,-187.69 1047.96,-182.43 1062.78,-178.59 1131.3,-160.83 1319.03,-195.18 1380.78,-160.59 1406.64,-146.11 1393.12,-120.62 1418.78,-105.8 1460.49,-81.7 1586.88,-92.86 1634.78,-87.8 1686.92,-82.28 1699.53,-77.13 1751.78,-72.8 1960.99,-55.43 2014.24,-67.51 2223.78,-54.8 2324.92,-48.66 2443.93,-37.76 2503.23,-32.08"/>
<polygon fill="black" stroke="black" points="2503.63,-35.55 2513.25,-31.11 2502.96,-28.59 2503.63,-35.55"/>
<text text-anchor="middle" x="1066.28" y="-182.39" font-family="Times New Roman,serif" font-size="14.00">h</text>
</g>
<!-- s6&#45;&gt;s14 -->
<g id="edge40" class="edge">
<title>s6&#45;&gt;s14</title>
<path fill="none" stroke="black" d="M556.44,-336.7C538.02,-330.05 513.62,-318.27 499.78,-299.39 467.56,-255.44 450.91,-225.42 478.78,-178.59 529.21,-93.86 578.5,-98.18 673.78,-72.8 755.4,-51.05 1353.65,-81.5 1433.78,-54.8 1436.52,-53.88 1439.23,-52.69 1441.86,-51.32"/>
<polygon fill="black" stroke="black" points="1443.72,-54.29 1450.46,-46.11 1440.09,-48.3 1443.72,-54.29"/>
<text text-anchor="middle" x="482.28" y="-182.39" font-family="Times New Roman,serif" font-size="14.00">c</text>
</g>
<!-- s6&#45;&gt;s21 -->
<g id="edge117" class="edge">
<title>s6&#45;&gt;s21</title>
<path fill="none" stroke="black" d="M607.12,-340.78C687.43,-331.49 936.23,-301.69 1140.78,-266.39 1160.41,-263 1473.06,-200.39 1491.78,-193.59 1505.05,-188.78 1506.45,-183.24 1519.78,-178.59 1562,-163.85 1575.46,-171.71 1618.78,-160.59 1633.43,-156.83 1649.3,-151.74 1662.95,-147.03"/>
<polygon fill="black" stroke="black" points="1664.17,-150.31 1672.44,-143.69 1661.84,-143.7 1664.17,-150.31"/>
<text text-anchor="middle" x="1415.28" y="-235.29" font-family="Times New Roman,serif" font-size="14.00">0</text>
</g>
<!-- s6&#45;&gt;s12 -->
<g id="edge18" class="edge">
<title>s6&#45;&gt;s12</title>
<path fill="none" stroke="black" d="M605.64,-337.39C642.13,-327.09 711.04,-304.07 758.78,-266.39 797.1,-236.14 783.56,-204.74 824.78,-178.59 1020.64,-54.38 1105.5,-100.35 1335.78,-72.8 1569.36,-44.85 1629.93,-68.38 1864.78,-54.8 1968.37,-48.8 2090.34,-37.74 2150.45,-32.03"/>
<polygon fill="black" stroke="black" points="2150.97,-35.5 2160.59,-31.06 2150.3,-28.53 2150.97,-35.5"/>
<text text-anchor="middle" x="828.28" y="-182.39" font-family="Times New Roman,serif" font-size="14.00">a</text>
</g>
<!-- s23&#45;&gt;s23 -->
<g id="edge136" class="edge">
<title>s23&#45;&gt;s23</title>
<path fill="none" stroke="black" d="M3702.45,-248.65C3713.13,-249.32 3722.18,-246.1 3722.18,-238.99 3722.18,-234.32 3718.28,-231.33 3712.58,-230.02"/>
<polygon fill="black" stroke="black" points="3712.66,-226.51 3702.45,-229.33 3712.19,-233.5 3712.66,-226.51"/>
<text text-anchor="middle" x="3725.68" y="-235.29" font-family="Times New Roman,serif" font-size="14.00">0</text>
</g>
<!-- s23&#45;&gt;s24 -->
<g id="edge140" class="edge">
<title>s23&#45;&gt;s24</title>
<path fill="none" stroke="black" d="M3691.37,-215.72C3701.05,-200.95 3713.89,-181.35 3724.55,-165.07"/>
<polygon fill="black" stroke="black" points="3727.66,-166.71 3730.22,-156.42 3721.81,-162.87 3727.66,-166.71"/>
<text text-anchor="middle" x="3719.28" y="-182.39" font-family="Times New Roman,serif" font-size="14.00">1</text>
</g>
<!-- s1&#45;&gt;s22 -->
<g id="edge123" class="edge">
<title>s1&#45;&gt;s22</title>
<path fill="none" stroke="black" d="M2418.53,-339.97C2341.22,-328.72 2107.59,-294.72 1913.78,-266.39 1864.43,-259.17 1807.47,-250.81 1771.07,-245.47"/>
<polygon fill="black" stroke="black" points="1771.32,-241.97 1760.92,-243.98 1770.3,-248.89 1771.32,-241.97"/>
<text text-anchor="middle" x="2136.28" y="-288.19" font-family="Times New Roman,serif" font-size="14.00">1</text>
</g>
<!-- s1&#45;&gt;s15 -->
<g id="edge46" class="edge">
<title>s1&#45;&gt;s15</title>
<path fill="none" stroke="black" d="M2439.53,-326.76C2421.79,-269.76 2363.96,-88.4 2341.78,-72.8 2297.24,-41.47 1413.49,-71.88 1361.78,-54.8 1359.04,-53.89 1356.33,-52.71 1353.69,-51.34"/>
<polygon fill="black" stroke="black" points="1355.46,-48.32 1345.09,-46.14 1351.84,-54.31 1355.46,-48.32"/>
<text text-anchor="middle" x="2398.78" y="-182.39" font-family="Times New Roman,serif" font-size="14.00">d</text>
</g>
<!-- s1&#45;&gt;s20 -->
<g id="edge101" class="edge">
<title>s1&#45;&gt;s20</title>
<path fill="none" stroke="black" d="M2471.31,-341.11C2559.52,-332.09 2851.04,-301.45 3090.78,-266.39 3102.52,-264.67 3502.89,-201.45 3511.78,-193.59 3539.89,-168.75 3530.58,-84.26 3521.78,-72.8 3506.22,-52.53 3437.18,-39.51 3393.18,-33.11"/>
<polygon fill="black" stroke="black" points="3393.52,-29.62 3383.13,-31.7 3392.54,-36.55 3393.52,-29.62"/>
<text text-anchor="middle" x="3524.78" y="-182.39" font-family="Times New Roman,serif" font-size="14.00">i</text>
</g>
<!-- s1&#45;&gt;s17 -->
<g id="edge68" class="edge">
<title>s1&#45;&gt;s17</title>
<path fill="none" stroke="black" d="M2455.5,-328.04C2465.06,-312.97 2478.35,-289.22 2483.78,-266.39 2500.54,-195.9 2489.87,-169.73 2455.78,-105.8 2446.59,-88.57 2444.45,-81.1 2426.78,-72.8 2362.99,-42.84 1862.72,-63.47 1792.78,-54.8 1764.61,-51.3 1733.28,-44.22 1709.85,-38.27"/>
<polygon fill="black" stroke="black" points="1710.56,-34.84 1700,-35.72 1708.8,-41.62 1710.56,-34.84"/>
<text text-anchor="middle" x="2493.28" y="-182.39" font-family="Times New Roman,serif" font-size="14.00">f</text>
</g>
<!-- s1&#45;&gt;s18 -->
<g id="edge79" class="edge">
<title>s1&#45;&gt;s18</title>
<path fill="none" stroke="black" d="M2470.98,-340C2510.54,-333.69 2582.54,-319.68 2597.78,-299.39 2616.87,-273.97 2610.52,-278.79 2559.78,-211.59 2552.77,-202.31 2547.84,-202.84 2540.78,-193.59 2513.93,-158.41 2528.48,-133.27 2493.78,-105.8 2449.07,-70.4 2425.98,-82.5 2369.78,-72.8 2368.22,-72.53 1988.61,-41.47 1866.29,-31.46"/>
<polygon fill="black" stroke="black" points="1866.51,-27.97 1856.26,-30.65 1865.94,-34.95 1866.51,-27.97"/>
<text text-anchor="middle" x="2544.28" y="-182.39" font-family="Times New Roman,serif" font-size="14.00">g</text>
</g>
<!-- s1&#45;&gt;s13 -->
<g id="edge24" class="edge">
<title>s1&#45;&gt;s13</title>
<path fill="none" stroke="black" d="M2434.5,-327.8C2424.76,-312.38 2410,-288.21 2398.78,-266.39 2388.04,-245.5 2333.34,-85.81 2313.78,-72.8 2266.37,-41.24 1342.87,-72.64 1288.78,-54.8 1286.04,-53.89 1283.33,-52.71 1280.69,-51.34"/>
<polygon fill="black" stroke="black" points="1282.46,-48.32 1272.09,-46.14 1278.84,-54.31 1282.46,-48.32"/>
<text text-anchor="middle" x="2374.78" y="-182.39" font-family="Times New Roman,serif" font-size="14.00">b</text>
</g>
<!-- s1&#45;&gt;s16 -->
<g id="edge57" class="edge">
<title>s1&#45;&gt;s16</title>
<path fill="none" stroke="black" d="M2443.13,-326.52C2437.53,-271.98 2417.3,-105.03 2376.78,-72.8 2335.82,-40.21 1484.48,-71.23 1434.78,-54.8 1432.04,-53.89 1429.33,-52.7 1426.69,-51.34"/>
<polygon fill="black" stroke="black" points="1428.46,-48.32 1418.09,-46.13 1424.84,-54.31 1428.46,-48.32"/>
<text text-anchor="middle" x="2427.28" y="-182.39" font-family="Times New Roman,serif" font-size="14.00">e</text>
</g>
<!-- s1&#45;&gt;s19 -->
<g id="edge90" class="edge">
<title>s1&#45;&gt;s19</title>
<path fill="none" stroke="black" d="M2470.16,-338.34C2509.04,-330 2585.71,-313.52 2650.78,-299.39 2829.07,-260.66 2871.24,-237.88 3051.78,-211.59 3078.68,-207.67 3277.28,-213.51 3295.78,-193.59 3307.2,-181.3 3346.37,-196.62 3293.78,-105.8 3279.69,-81.46 3266.6,-81.27 3239.78,-72.8 3114.88,-33.34 2705.14,-28.85 2578.45,-28.42"/>
<polygon fill="black" stroke="black" points="2578.46,-24.92 2568.45,-28.39 2578.44,-31.92 2578.46,-24.92"/>
<text text-anchor="middle" x="3323.28" y="-182.39" font-family="Times New Roman,serif" font-size="14.00">h</text>
</g>
<!-- s1&#45;&gt;s14 -->
<g id="edge35" class="edge">
<title>s1&#45;&gt;s14</title>
<path fill="none" stroke="black" d="M2445.07,-326.57C2445.31,-310.89 2445.65,-287.08 2445.78,-266.39 2446.35,-178.15 2476,-120.52 2401.78,-72.8 2366.07,-49.83 1680.06,-58.62 1637.78,-54.8 1592.61,-50.71 1541.13,-41.94 1507.41,-35.63"/>
<polygon fill="black" stroke="black" points="1508.02,-32.18 1497.54,-33.76 1506.71,-39.06 1508.02,-32.18"/>
<text text-anchor="middle" x="2455.28" y="-182.39" font-family="Times New Roman,serif" font-size="14.00">c</text>
</g>
<!-- s1&#45;&gt;s21 -->
<g id="edge112" class="edge">
<title>s1&#45;&gt;s21</title>
<path fill="none" stroke="black" d="M2420.67,-336.13C2398.99,-328.62 2366.8,-315.91 2341.78,-299.39 2276.78,-256.46 2286.54,-208.91 2214.78,-178.59 2120.55,-138.78 1854.24,-184.55 1754.78,-160.59 1746.56,-158.61 1738.1,-155.41 1730.29,-151.91"/>
<polygon fill="black" stroke="black" points="1731.68,-148.7 1721.15,-147.56 1728.67,-155.02 1731.68,-148.7"/>
<text text-anchor="middle" x="2308.28" y="-235.29" font-family="Times New Roman,serif" font-size="14.00">0</text>
</g>
<!-- s1&#45;&gt;s12 -->
<g id="edge13" class="edge">
<title>s1&#45;&gt;s12</title>
<path fill="none" stroke="black" d="M2471.53,-341.09C2516.53,-335.93 2604.3,-323.04 2622.78,-299.39 2690.77,-212.36 2612.32,-134.58 2520.78,-72.8 2473.22,-40.7 2302.08,-31.71 2225.4,-29.27"/>
<polygon fill="black" stroke="black" points="2225.33,-25.77 2215.23,-28.97 2225.12,-32.77 2225.33,-25.77"/>
<text text-anchor="middle" x="2644.28" y="-182.39" font-family="Times New Roman,serif" font-size="14.00">a</text>
</g>
<!-- s7&#45;&gt;s22 -->
<g id="edge129" class="edge">
<title>s7&#45;&gt;s22</title>
<path fill="none" stroke="black" d="M2057.89,-337.69C2024.98,-329.53 1965.26,-314.33 1914.78,-299.39 1863.76,-284.29 1805.39,-264.71 1769.05,-252.24"/>
<polygon fill="black" stroke="black" points="1770,-248.87 1759.41,-248.93 1767.73,-255.49 1770,-248.87"/>
<text text-anchor="middle" x="1918.28" y="-288.19" font-family="Times New Roman,serif" font-size="14.00">1</text>
</g>
<!-- s7&#45;&gt;s15 -->
<g id="edge52" class="edge">
<title>s7&#45;&gt;s15</title>
<path fill="none" stroke="black" d="M2080.85,-326.45C2074.31,-269.29 2052.32,-89.51 2032.78,-72.8 2004.44,-48.56 1397.14,-66.64 1361.78,-54.8 1359.04,-53.88 1356.34,-52.69 1353.7,-51.31"/>
<polygon fill="black" stroke="black" points="1355.47,-48.29 1345.1,-46.1 1351.84,-54.28 1355.47,-48.29"/>
<text text-anchor="middle" x="2067.78" y="-182.39" font-family="Times New Roman,serif" font-size="14.00">d</text>
</g>
<!-- s7&#45;&gt;s20 -->
<g id="edge107" class="edge">
<title>s7&#45;&gt;s20</title>
<path fill="none" stroke="black" d="M2108.91,-340.09C2182.33,-329.83 2396.77,-300.66 2575.78,-284.39 2705.71,-272.58 2740.22,-288.6 2868.78,-266.39 2955.38,-251.43 2972.05,-225.78 3058.78,-211.59 3081.5,-207.88 3456.86,-210.22 3472.78,-193.59 3517.97,-146.39 3435.8,-80.62 3387.44,-48.14"/>
<polygon fill="black" stroke="black" points="3389.11,-45.06 3378.84,-42.48 3385.26,-50.9 3389.11,-45.06"/>
<text text-anchor="middle" x="3484.78" y="-182.39" font-family="Times New Roman,serif" font-size="14.00">i</text>
</g>
<!-- s7&#45;&gt;s17 -->
<g id="edge74" class="edge">
<title>s7&#45;&gt;s17</title>
<path fill="none" stroke="black" d="M2104.68,-334.23C2118.58,-326.89 2135.47,-315.29 2143.78,-299.39 2190.61,-209.79 2212.1,-121.99 2123.78,-72.8 2091.6,-54.87 1829.27,-59.8 1792.78,-54.8 1764.66,-50.94 1733.33,-43.87 1709.88,-38.02"/>
<polygon fill="black" stroke="black" points="1710.58,-34.59 1700.02,-35.52 1708.85,-41.38 1710.58,-34.59"/>
<text text-anchor="middle" x="2187.28" y="-182.39" font-family="Times New Roman,serif" font-size="14.00">f</text>
</g>
<!-- s7&#45;&gt;s18 -->
<g id="edge85" class="edge">
<title>s7&#45;&gt;s18</title>
<path fill="none" stroke="black" d="M2108.16,-338.31C2129.6,-332.35 2159.5,-320.69 2176.78,-299.39 2232.49,-230.7 2157.36,-165.3 2222.78,-105.8 2266.56,-65.98 2391.82,-116.38 2351.78,-72.8 2350.75,-71.67 1985.84,-41.39 1866.24,-31.49"/>
<polygon fill="black" stroke="black" points="1866.36,-27.99 1856.1,-30.66 1865.78,-34.97 1866.36,-27.99"/>
<text text-anchor="middle" x="2199.28" y="-182.39" font-family="Times New Roman,serif" font-size="14.00">g</text>
</g>
<!-- s7&#45;&gt;s13 -->
<g id="edge30" class="edge">
<title>s7&#45;&gt;s13</title>
<path fill="none" stroke="black" d="M2078.23,-326.89C2064.18,-275.22 2021.42,-121.82 2004.78,-105.8 1966.49,-68.9 1942.32,-80.99 1889.78,-72.8 1823.77,-62.5 1352.09,-76.12 1288.78,-54.8 1286.05,-53.88 1283.34,-52.68 1280.7,-51.3"/>
<polygon fill="black" stroke="black" points="1282.47,-48.28 1272.11,-46.09 1278.84,-54.27 1282.47,-48.28"/>
<text text-anchor="middle" x="2043.78" y="-182.39" font-family="Times New Roman,serif" font-size="14.00">b</text>
</g>
<!-- s7&#45;&gt;s16 -->
<g id="edge63" class="edge">
<title>s7&#45;&gt;s16</title>
<path fill="none" stroke="black" d="M2083.34,-326.53C2085.02,-269.62 2088.82,-90.55 2070.78,-72.8 2045.59,-48 1468.29,-66.05 1434.78,-54.8 1432.05,-53.88 1429.34,-52.68 1426.7,-51.31"/>
<polygon fill="black" stroke="black" points="1428.47,-48.29 1418.11,-46.1 1424.84,-54.27 1428.47,-48.29"/>
<text text-anchor="middle" x="2088.28" y="-182.39" font-family="Times New Roman,serif" font-size="14.00">e</text>
</g>
<!-- s7&#45;&gt;s19 -->
<g id="edge96" class="edge">
<title>s7&#45;&gt;s19</title>
<path fill="none" stroke="black" d="M2107.8,-337.85C2211.77,-313.24 2606.99,-220.01 2663.78,-211.59 2776.17,-194.94 2806.54,-211.22 2918.78,-193.59 2946.36,-189.26 2952.2,-182.96 2979.78,-178.59 3006.96,-174.29 3208.04,-180.74 3226.78,-160.59 3253.74,-131.6 3244.34,-95.31 3211.78,-72.8 3159.6,-36.71 2712.29,-29.89 2578.45,-28.66"/>
<polygon fill="black" stroke="black" points="2578.31,-25.16 2568.28,-28.57 2578.25,-32.16 2578.31,-25.16"/>
<text text-anchor="middle" x="2983.28" y="-182.39" font-family="Times New Roman,serif" font-size="14.00">h</text>
</g>
<!-- s7&#45;&gt;s14 -->
<g id="edge41" class="edge">
<title>s7&#45;&gt;s14</title>
<path fill="none" stroke="black" d="M2086.03,-326.7C2091.98,-294.4 2104.44,-222.12 2108.78,-160.59 2110.5,-136.3 2112.35,-129.89 2108.78,-105.8 2106.53,-90.64 2110.91,-82.17 2098.78,-72.8 2078.5,-57.13 1663.29,-57.3 1637.78,-54.8 1592.64,-50.36 1541.15,-41.66 1507.43,-35.46"/>
<polygon fill="black" stroke="black" points="1508.03,-32.02 1497.55,-33.63 1506.75,-38.9 1508.03,-32.02"/>
<text text-anchor="middle" x="2111.28" y="-182.39" font-family="Times New Roman,serif" font-size="14.00">c</text>
</g>
<!-- s7&#45;&gt;s21 -->
<g id="edge118" class="edge">
<title>s7&#45;&gt;s21</title>
<path fill="none" stroke="black" d="M2057.2,-338.24C2030.68,-331.72 1988.7,-319.2 1956.78,-299.39 1891.41,-258.81 1900.32,-215.45 1832.78,-178.59 1801.55,-161.55 1788.44,-172.13 1754.78,-160.59 1746.86,-157.88 1738.56,-154.42 1730.83,-150.9"/>
<polygon fill="black" stroke="black" points="1732.27,-147.71 1721.73,-146.63 1729.3,-154.05 1732.27,-147.71"/>
<text text-anchor="middle" x="1920.28" y="-235.29" font-family="Times New Roman,serif" font-size="14.00">0</text>
</g>
<!-- s7&#45;&gt;s12 -->
<g id="edge19" class="edge">
<title>s7&#45;&gt;s12</title>
<path fill="none" stroke="black" d="M2107.25,-337.1C2136.11,-329.01 2185.4,-314.59 2226.78,-299.39 2261.73,-286.55 2279.78,-294.86 2303.78,-266.39 2329.64,-235.71 2299.89,-210.06 2324.78,-178.59 2380.37,-108.32 2457.81,-164.1 2504.78,-87.8 2534.71,-39.18 2315.8,-30.33 2225.51,-28.74"/>
<polygon fill="black" stroke="black" points="2225.47,-25.24 2215.41,-28.58 2225.36,-32.23 2225.47,-25.24"/>
<text text-anchor="middle" x="2328.28" y="-182.39" font-family="Times New Roman,serif" font-size="14.00">a</text>
</g>
<!-- s24&#45;&gt;s23 -->
<g id="edge137" class="edge">
<title>s24&#45;&gt;s23</title>
<path fill="none" stroke="black" d="M3722.82,-149.86C3713.36,-157.58 3702.87,-167.59 3695.78,-178.59 3691.2,-185.71 3687.64,-194.02 3684.91,-202.14"/>
<polygon fill="black" stroke="black" points="3681.52,-201.25 3681.98,-211.84 3688.22,-203.28 3681.52,-201.25"/>
<text text-anchor="middle" x="3699.28" y="-182.39" font-family="Times New Roman,serif" font-size="14.00">0</text>
</g>
<!-- s24&#45;&gt;s24 -->
<g id="edge141" class="edge">
<title>s24&#45;&gt;s24</title>
<path fill="none" stroke="black" d="M3770.45,-142.86C3781.13,-143.52 3790.18,-140.3 3790.18,-133.19 3790.18,-128.53 3786.28,-125.54 3780.58,-124.22"/>
<polygon fill="black" stroke="black" points="3780.66,-120.72 3770.45,-123.53 3780.19,-127.7 3780.66,-120.72"/>
<text text-anchor="middle" x="3793.68" y="-129.49" font-family="Times New Roman,serif" font-size="14.00">1</text>
</g>
<!-- s2&#45;&gt;s22 -->
<g id="edge124" class="edge">
<title>s2&#45;&gt;s22</title>
<path fill="none" stroke="black" d="M952.12,-340.42C996.39,-334.88 1088.54,-323.81 1166.78,-317.39 1312.73,-305.41 1350.23,-315.51 1495.78,-299.39 1584.02,-289.61 1609.98,-298.41 1692.78,-266.39 1696.3,-265.02 1699.84,-263.34 1703.29,-261.47"/>
<polygon fill="black" stroke="black" points="1705.29,-264.36 1712.11,-256.25 1701.72,-258.34 1705.29,-264.36"/>
<text text-anchor="middle" x="1638.28" y="-288.19" font-family="Times New Roman,serif" font-size="14.00">1</text>
</g>
<!-- s2&#45;&gt;s15 -->
<g id="edge47" class="edge">
<title>s2&#45;&gt;s15</title>
<path fill="none" stroke="black" d="M898.96,-342.43C839.15,-338.93 697.16,-327.78 659.78,-299.39 625.49,-273.34 651.3,-239.83 618.78,-211.59 598.08,-193.62 584.83,-204.73 559.78,-193.59 533.73,-182.01 518.83,-185.4 504.78,-160.59 485.56,-126.64 477.51,-100.7 504.78,-72.8 535.19,-41.68 1246.5,-68.54 1287.78,-54.8 1290.52,-53.88 1293.23,-52.7 1295.86,-51.33"/>
<polygon fill="black" stroke="black" points="1297.72,-54.29 1304.46,-46.12 1294.1,-48.3 1297.72,-54.29"/>
<text text-anchor="middle" x="563.78" y="-182.39" font-family="Times New Roman,serif" font-size="14.00">d</text>
</g>
<!-- s2&#45;&gt;s20 -->
<g id="edge102" class="edge">
<title>s2&#45;&gt;s20</title>
<path fill="none" stroke="black" d="M952.39,-340.82C1031.56,-331.97 1262.21,-305.94 1295.78,-299.39 1350.49,-288.7 1371.07,-298.29 1416.78,-266.39 1441.29,-249.28 1429.66,-226.13 1455.78,-211.59 1510.84,-180.95 1676.16,-200.67 1738.78,-193.59 1779.95,-188.94 1789.56,-182.74 1830.78,-178.59 2034.35,-158.09 2086.86,-177.21 2290.78,-160.59 2695.28,-127.63 3182.47,-55.05 3318.78,-34.14"/>
<polygon fill="black" stroke="black" points="3319.36,-37.59 3328.71,-32.61 3318.3,-30.67 3319.36,-37.59"/>
<text text-anchor="middle" x="1832.78" y="-182.39" font-family="Times New Roman,serif" font-size="14.00">i</text>
</g>
<!-- s2&#45;&gt;s17 -->
<g id="edge69" class="edge">
<title>s2&#45;&gt;s17</title>
<path fill="none" stroke="black" d="M904.82,-333.32C858.08,-308.52 752.3,-243.38 789.78,-178.59 837.02,-96.94 883.06,-98.66 973.78,-72.8 1087.75,-40.3 1388.81,-66.07 1506.78,-54.8 1551.93,-50.48 1603.42,-41.76 1637.14,-35.52"/>
<polygon fill="black" stroke="black" points="1637.83,-38.95 1647.01,-33.67 1636.54,-32.07 1637.83,-38.95"/>
<text text-anchor="middle" x="792.28" y="-182.39" font-family="Times New Roman,serif" font-size="14.00">f</text>
</g>
<!-- s2&#45;&gt;s18 -->
<g id="edge80" class="edge">
<title>s2&#45;&gt;s18</title>
<path fill="none" stroke="black" d="M939.36,-329.08C983.22,-281.9 1121.58,-135.65 1178.78,-105.8 1241.99,-72.81 1265.06,-81.87 1335.78,-72.8 1500.84,-51.61 1544.84,-76.9 1709.78,-54.8 1737.92,-51.03 1769.24,-43.96 1792.69,-38.08"/>
<polygon fill="black" stroke="black" points="1793.72,-41.43 1802.54,-35.57 1791.99,-34.65 1793.72,-41.43"/>
<text text-anchor="middle" x="1090.28" y="-182.39" font-family="Times New Roman,serif" font-size="14.00">g</text>
</g>
<!-- s2&#45;&gt;s13 -->
<g id="edge25" class="edge">
<title>s2&#45;&gt;s13</title>
<path fill="none" stroke="black" d="M899.7,-339.34C847.81,-329.96 728.54,-305.72 634.78,-266.39 576.2,-241.82 564.79,-228.59 511.78,-193.59 501.43,-186.76 473.13,-171.25 466.78,-160.59 446.68,-126.85 429.8,-101.33 456.78,-72.8 483.07,-45 1058.69,-32.07 1213.65,-29.09"/>
<polygon fill="black" stroke="black" points="1214.14,-32.58 1224.07,-28.89 1214.01,-25.58 1214.14,-32.58"/>
<text text-anchor="middle" x="515.78" y="-182.39" font-family="Times New Roman,serif" font-size="14.00">b</text>
</g>
<!-- s2&#45;&gt;s16 -->
<g id="edge58" class="edge">
<title>s2&#45;&gt;s16</title>
<path fill="none" stroke="black" d="M899.04,-341.43C845.49,-336.27 727.42,-322.55 694.78,-299.39 657.98,-273.27 678.53,-240.38 643.78,-211.59 625.27,-196.26 609.86,-210.51 592.78,-193.59 581.69,-182.61 583.49,-175.96 580.78,-160.59 574.01,-122.16 553.51,-100.7 580.78,-72.8 611.07,-41.79 1319.65,-68.49 1360.78,-54.8 1363.52,-53.88 1366.23,-52.69 1368.86,-51.33"/>
<polygon fill="black" stroke="black" points="1370.72,-54.29 1377.46,-46.12 1367.1,-48.3 1370.72,-54.29"/>
<text text-anchor="middle" x="596.28" y="-182.39" font-family="Times New Roman,serif" font-size="14.00">e</text>
</g>
<!-- s2&#45;&gt;s19 -->
<g id="edge91" class="edge">
<title>s2&#45;&gt;s19</title>
<path fill="none" stroke="black" d="M952.18,-340.54C1044.15,-329.06 1346.9,-289.82 1383.78,-266.39 1408.8,-250.5 1398.4,-229.8 1421.78,-211.59 1430.02,-205.18 1499.73,-181.43 1509.78,-178.59 1550.3,-167.16 1565.24,-179.65 1602.78,-160.59 1634.69,-144.39 1630.04,-122.34 1661.78,-105.8 1669.49,-101.78 1806.16,-73.91 1814.78,-72.8 1995.24,-49.53 2042.19,-66.35 2223.78,-54.8 2324.91,-48.36 2443.92,-37.59 2503.23,-32"/>
<polygon fill="black" stroke="black" points="2503.62,-35.48 2513.25,-31.06 2502.96,-28.51 2503.62,-35.48"/>
<text text-anchor="middle" x="1513.28" y="-182.39" font-family="Times New Roman,serif" font-size="14.00">h</text>
</g>
<!-- s2&#45;&gt;s14 -->
<g id="edge36" class="edge">
<title>s2&#45;&gt;s14</title>
<path fill="none" stroke="black" d="M900.18,-338.26C844.75,-324.77 714.44,-284.36 661.78,-193.59 639.99,-156.03 579.8,-159.55 694.78,-72.8 727.56,-48.06 1394.82,-67.79 1433.78,-54.8 1436.52,-53.88 1439.23,-52.69 1441.86,-51.32"/>
<polygon fill="black" stroke="black" points="1443.72,-54.29 1450.46,-46.11 1440.09,-48.3 1443.72,-54.29"/>
<text text-anchor="middle" x="665.28" y="-182.39" font-family="Times New Roman,serif" font-size="14.00">c</text>
</g>
<!-- s2&#45;&gt;s21 -->
<g id="edge113" class="edge">
<title>s2&#45;&gt;s21</title>
<path fill="none" stroke="black" d="M952.14,-340.59C996.43,-335.28 1088.61,-324.54 1166.78,-317.39 1221.14,-312.41 1361.61,-320.91 1411.78,-299.39 1485.16,-267.9 1472.82,-213.21 1544.78,-178.59 1590.21,-156.74 1609.7,-178.62 1656.78,-160.59 1660.31,-159.24 1663.85,-157.56 1667.3,-155.7"/>
<polygon fill="black" stroke="black" points="1669.29,-158.59 1676.12,-150.49 1665.73,-152.56 1669.29,-158.59"/>
<text text-anchor="middle" x="1503.28" y="-235.29" font-family="Times New Roman,serif" font-size="14.00">0</text>
</g>
<!-- s2&#45;&gt;s12 -->
<g id="edge14" class="edge">
<title>s2&#45;&gt;s12</title>
<path fill="none" stroke="black" d="M943.37,-331.11C988.7,-299.17 1114.28,-215.36 1232.78,-178.59 1303.66,-156.6 1327.94,-182.7 1398.78,-160.59 1447.53,-145.38 1451.2,-121.55 1499.78,-105.8 1553.5,-88.37 1695.68,-79.32 1751.78,-72.8 1898.91,-55.68 2074.4,-38.92 2150.04,-31.87"/>
<polygon fill="black" stroke="black" points="2150.82,-35.32 2160.46,-30.91 2150.18,-28.35 2150.82,-35.32"/>
<text text-anchor="middle" x="1236.28" y="-182.39" font-family="Times New Roman,serif" font-size="14.00">a</text>
</g>
<!-- s3&#45;&gt;s22 -->
<g id="edge125" class="edge">
<title>s3&#45;&gt;s22</title>
<path fill="none" stroke="black" d="M3237.92,-342.03C3172.42,-337.77 2999.29,-326.51 2854.78,-317.39 2617.91,-302.43 2558.79,-296.95 2321.78,-284.39 2140.53,-274.78 2094.47,-283.58 1913.78,-266.39 1864.13,-261.66 1807.24,-252.72 1770.94,-246.57"/>
<polygon fill="black" stroke="black" points="1771.26,-243.07 1760.82,-244.83 1770.08,-249.97 1771.26,-243.07"/>
<text text-anchor="middle" x="2574.28" y="-288.19" font-family="Times New Roman,serif" font-size="14.00">1</text>
</g>
<!-- s3&#45;&gt;s15 -->
<g id="edge48" class="edge">
<title>s3&#45;&gt;s15</title>
<path fill="none" stroke="black" d="M3247.56,-330.69C3229.09,-316.16 3199.49,-291.45 3177.78,-266.39 3147.16,-231.04 3157.76,-205.87 3119.78,-178.59 3094.39,-160.35 3077.59,-178.24 3051.78,-160.59 3011.92,-133.33 3030.7,-94.92 2987.78,-72.8 2907.48,-31.4 1447.66,-82.82 1361.78,-54.8 1359.04,-53.9 1356.32,-52.72 1353.69,-51.36"/>
<polygon fill="black" stroke="black" points="1355.45,-48.34 1345.08,-46.17 1351.83,-54.33 1355.45,-48.34"/>
<text text-anchor="middle" x="3140.78" y="-182.39" font-family="Times New Roman,serif" font-size="14.00">d</text>
</g>
<!-- s3&#45;&gt;s20 -->
<g id="edge103" class="edge">
<title>s3&#45;&gt;s20</title>
<path fill="none" stroke="black" d="M3291.18,-340.25C3355.4,-331.1 3517.2,-304.71 3553.78,-266.39 3588.94,-229.55 3587.81,-210.53 3597.78,-160.59 3605.42,-122.33 3622.76,-102.77 3597.78,-72.8 3572.19,-42.08 3454.66,-32.55 3393.3,-29.64"/>
<polygon fill="black" stroke="black" points="3393.39,-26.14 3383.25,-29.2 3393.09,-33.13 3393.39,-26.14"/>
<text text-anchor="middle" x="3596.78" y="-182.39" font-family="Times New Roman,serif" font-size="14.00">i</text>
</g>
<!-- s3&#45;&gt;s17 -->
<g id="edge70" class="edge">
<title>s3&#45;&gt;s17</title>
<path fill="none" stroke="black" d="M3288.97,-336.69C3315.12,-327.58 3351.59,-309.85 3339.78,-284.39 3324.18,-250.75 3243.57,-195.89 3210.78,-178.59 3188.03,-166.59 3175.98,-176.52 3155.78,-160.59 3119.81,-132.22 3141.61,-95.42 3101.78,-72.8 3070.16,-54.84 1828.9,-59.01 1792.78,-54.8 1764.58,-51.51 1733.26,-44.42 1709.83,-38.41"/>
<polygon fill="black" stroke="black" points="1710.54,-34.98 1699.98,-35.83 1708.77,-41.75 1710.54,-34.98"/>
<text text-anchor="middle" x="3238.28" y="-182.39" font-family="Times New Roman,serif" font-size="14.00">f</text>
</g>
<!-- s3&#45;&gt;s18 -->
<g id="edge81" class="edge">
<title>s3&#45;&gt;s18</title>
<path fill="none" stroke="black" d="M3291.07,-340.55C3315.6,-335.98 3350.87,-325.09 3367.78,-299.39 3389.23,-266.79 3392.03,-242.16 3367.78,-211.59 3345.94,-184.06 3323.35,-206.79 3290.78,-193.59 3278.77,-188.72 3277.82,-183.38 3265.78,-178.59 3231.11,-164.81 3213.54,-183.1 3183.78,-160.59 3148.48,-133.89 3174.54,-95.88 3136.78,-72.8 3113.43,-58.52 2179.11,-56.16 2151.78,-54.8 2048.14,-49.62 1926.19,-38.2 1866.1,-32.22"/>
<polygon fill="black" stroke="black" points="1866.27,-28.72 1855.97,-31.2 1865.57,-35.68 1866.27,-28.72"/>
<text text-anchor="middle" x="3294.28" y="-182.39" font-family="Times New Roman,serif" font-size="14.00">g</text>
</g>
<!-- s3&#45;&gt;s13 -->
<g id="edge26" class="edge">
<title>s3&#45;&gt;s13</title>
<path fill="none" stroke="black" d="M3245.04,-332.26C3230.23,-323.49 3209.53,-311 3191.78,-299.39 3170.42,-285.42 3162.42,-284.83 3144.78,-266.39 3112.79,-232.94 3127.56,-203.86 3088.78,-178.59 3056.29,-157.42 2437.42,-76.06 2398.78,-72.8 2337.32,-67.61 1347.36,-74.08 1288.78,-54.8 1286.04,-53.89 1283.33,-52.71 1280.69,-51.35"/>
<polygon fill="black" stroke="black" points="1282.46,-48.32 1272.09,-46.15 1278.84,-54.32 1282.46,-48.32"/>
<text text-anchor="middle" x="3109.78" y="-182.39" font-family="Times New Roman,serif" font-size="14.00">b</text>
</g>
<!-- s3&#45;&gt;s16 -->
<g id="edge59" class="edge">
<title>s3&#45;&gt;s16</title>
<path fill="none" stroke="black" d="M3255.11,-327.96C3239.57,-302.79 3207.72,-252.32 3177.78,-211.59 3166.56,-196.32 3166.59,-189.04 3150.78,-178.59 3126.84,-162.78 3112.21,-177.16 3088.78,-160.59 3049.57,-132.86 3068.38,-94.97 3025.78,-72.8 2947.37,-31.99 1518.81,-82.22 1434.78,-54.8 1432.04,-53.9 1429.32,-52.72 1426.69,-51.36"/>
<polygon fill="black" stroke="black" points="1428.45,-48.34 1418.08,-46.17 1424.83,-54.33 1428.45,-48.34"/>
<text text-anchor="middle" x="3170.28" y="-182.39" font-family="Times New Roman,serif" font-size="14.00">e</text>
</g>
<!-- s3&#45;&gt;s19 -->
<g id="edge92" class="edge">
<title>s3&#45;&gt;s19</title>
<path fill="none" stroke="black" d="M3291.31,-341.15C3336.46,-336.06 3425.14,-323.22 3443.78,-299.39 3516.43,-206.51 3418.97,-105.83 3305.78,-72.8 3167.14,-32.33 2713.39,-28.57 2578.76,-28.36"/>
<polygon fill="black" stroke="black" points="2578.54,-24.86 2568.54,-28.35 2578.54,-31.86 2578.54,-24.86"/>
<text text-anchor="middle" x="3465.28" y="-182.39" font-family="Times New Roman,serif" font-size="14.00">h</text>
</g>
<!-- s3&#45;&gt;s14 -->
<g id="edge37" class="edge">
<title>s3&#45;&gt;s14</title>
<path fill="none" stroke="black" d="M3261.13,-326.78C3254.92,-300.44 3240.51,-248.94 3215.78,-211.59 3203.98,-193.77 3199.19,-189.46 3180.78,-178.59 3158.27,-165.3 3145.79,-176.15 3124.78,-160.59 3086.59,-132.32 3105.75,-95.08 3063.78,-72.8 3028.79,-54.22 1677.25,-58.15 1637.78,-54.8 1592.59,-50.96 1541.11,-42.14 1507.4,-35.75"/>
<polygon fill="black" stroke="black" points="1508.02,-32.3 1497.53,-33.85 1506.69,-39.17 1508.02,-32.3"/>
<text text-anchor="middle" x="3206.28" y="-182.39" font-family="Times New Roman,serif" font-size="14.00">c</text>
</g>
<!-- s3&#45;&gt;s21 -->
<g id="edge114" class="edge">
<title>s3&#45;&gt;s21</title>
<path fill="none" stroke="black" d="M3238.32,-341.13C3206.04,-336.83 3150.92,-325.93 3111.78,-299.39 3055.48,-261.2 3078.68,-208.91 3017.78,-178.59 2954.96,-147.32 1823.2,-176.18 1754.78,-160.59 1746.54,-158.71 1738.07,-155.56 1730.25,-152.06"/>
<polygon fill="black" stroke="black" points="1731.65,-148.85 1721.11,-147.7 1728.63,-155.17 1731.65,-148.85"/>
<text text-anchor="middle" x="3083.28" y="-235.29" font-family="Times New Roman,serif" font-size="14.00">0</text>
</g>
<!-- s3&#45;&gt;s12 -->
<g id="edge15" class="edge">
<title>s3&#45;&gt;s12</title>
<path fill="none" stroke="black" d="M3291.93,-344.08C3325,-342.79 3379.67,-334.98 3405.78,-299.39 3428.86,-267.92 3427.12,-244.26 3405.78,-211.59 3394.9,-194.93 3383,-201.61 3364.78,-193.59 3349.66,-186.94 3346.63,-183.24 3330.78,-178.59 3281.14,-164.03 3258.84,-189.26 3215.78,-160.59 3177.65,-135.21 3201.46,-95.69 3161.78,-72.8 3130.15,-54.55 2541.24,-56.81 2504.78,-54.8 2403.61,-49.2 2284.62,-38.07 2225.32,-32.21"/>
<polygon fill="black" stroke="black" points="2225.6,-28.72 2215.31,-31.21 2224.91,-35.68 2225.6,-28.72"/>
<text text-anchor="middle" x="3368.28" y="-182.39" font-family="Times New Roman,serif" font-size="14.00">a</text>
</g>
<!-- s10&#45;&gt;s23 -->
<g id="edge134" class="edge">
<title>s10&#45;&gt;s23</title>
<path fill="none" stroke="black" d="M3660.28,-317.86C3662.95,-305.23 3666.22,-289.83 3669.13,-276.07"/>
<polygon fill="black" stroke="black" points="3672.63,-276.45 3671.28,-265.94 3665.78,-275 3672.63,-276.45"/>
<text text-anchor="middle" x="3671.28" y="-288.19" font-family="Times New Roman,serif" font-size="14.00">0</text>
</g>
<!-- s10&#45;&gt;s24 -->
<g id="edge138" class="edge">
<title>s10&#45;&gt;s24</title>
<path fill="none" stroke="black" d="M3676.95,-327.98C3694.57,-315.41 3716.35,-299.84 3716.78,-299.39 3728.73,-286.76 3732.48,-282.94 3737.78,-266.39 3747.77,-235.18 3748.8,-197.73 3747.76,-170.67"/>
<polygon fill="black" stroke="black" points="3751.24,-170.3 3747.25,-160.48 3744.25,-170.65 3751.24,-170.3"/>
<text text-anchor="middle" x="3751.28" y="-235.29" font-family="Times New Roman,serif" font-size="14.00">1</text>
</g>
<!-- s21&#45;&gt;s22 -->
<g id="edge132" class="edge">
<title>s21&#45;&gt;s22</title>
<path fill="none" stroke="black" d="M1706.13,-159.38C1709.67,-169.96 1713.88,-182.39 1717.78,-193.59 1718.92,-196.86 1720.12,-200.26 1721.33,-203.66"/>
<polygon fill="black" stroke="black" points="1718.05,-204.9 1724.72,-213.13 1724.64,-202.54 1718.05,-204.9"/>
<text text-anchor="middle" x="1721.28" y="-182.39" font-family="Times New Roman,serif" font-size="14.00">1</text>
</g>
<!-- s21&#45;&gt;s15 -->
<g id="edge55" class="edge">
<title>s21&#45;&gt;s15</title>
<path fill="none" stroke="black" d="M1671.39,-125.78C1647.73,-120.14 1612.05,-111.9 1580.78,-105.8 1532.59,-96.39 1518.58,-102.64 1471.78,-87.8 1457.19,-83.17 1455.22,-77.86 1440.78,-72.8 1406.8,-60.88 1394.63,-69.54 1361.78,-54.8 1359.3,-53.68 1356.82,-52.39 1354.38,-50.99"/>
<polygon fill="black" stroke="black" points="1356.14,-47.96 1345.82,-45.56 1352.39,-53.87 1356.14,-47.96"/>
<text text-anchor="middle" x="1475.78" y="-76.6" font-family="Times New Roman,serif" font-size="14.00">d</text>
</g>
<!-- s21&#45;&gt;s20 -->
<g id="edge110" class="edge">
<title>s21&#45;&gt;s20</title>
<path fill="none" stroke="black" d="M1722.24,-120.15C1734.42,-114.75 1749.55,-108.9 1763.78,-105.8 1803.02,-97.25 3080.62,-40.54 3318.02,-30.06"/>
<polygon fill="black" stroke="black" points="3318.38,-33.55 3328.22,-29.61 3318.08,-26.56 3318.38,-33.55"/>
<text text-anchor="middle" x="2345.78" y="-76.6" font-family="Times New Roman,serif" font-size="14.00">i</text>
</g>
<!-- s21&#45;&gt;s17 -->
<g id="edge77" class="edge">
<title>s21&#45;&gt;s17</title>
<path fill="none" stroke="black" d="M1676.1,-116.02C1667.77,-108.47 1659.21,-98.74 1654.78,-87.8 1651.2,-78.95 1652.34,-69.16 1655.37,-60.12"/>
<polygon fill="black" stroke="black" points="1658.68,-61.26 1659.26,-50.68 1652.21,-58.59 1658.68,-61.26"/>
<text text-anchor="middle" x="1657.28" y="-76.6" font-family="Times New Roman,serif" font-size="14.00">f</text>
</g>
<!-- s21&#45;&gt;s18 -->
<g id="edge88" class="edge">
<title>s21&#45;&gt;s18</title>
<path fill="none" stroke="black" d="M1718.83,-115.52C1740.79,-98.11 1775.38,-70.71 1799.89,-51.29"/>
<polygon fill="black" stroke="black" points="1802.12,-53.99 1807.79,-45.03 1797.77,-48.5 1802.12,-53.99"/>
<text text-anchor="middle" x="1775.28" y="-76.6" font-family="Times New Roman,serif" font-size="14.00">g</text>
</g>
<!-- s21&#45;&gt;s13 -->
<g id="edge33" class="edge">
<title>s21&#45;&gt;s13</title>
<path fill="none" stroke="black" d="M1671.45,-125.46C1647.83,-119.61 1612.17,-111.24 1580.78,-105.8 1515.93,-94.54 1498.62,-99.11 1433.78,-87.8 1368.67,-76.43 1349.08,-81.85 1288.78,-54.8 1286.3,-53.68 1283.82,-52.39 1281.38,-50.99"/>
<polygon fill="black" stroke="black" points="1283.14,-47.96 1272.82,-45.56 1279.39,-53.87 1283.14,-47.96"/>
<text text-anchor="middle" x="1437.78" y="-76.6" font-family="Times New Roman,serif" font-size="14.00">b</text>
</g>
<!-- s21&#45;&gt;s16 -->
<g id="edge66" class="edge">
<title>s21&#45;&gt;s16</title>
<path fill="none" stroke="black" d="M1671.24,-125.58C1613.34,-110.97 1477.47,-75.57 1434.78,-54.8 1432.34,-53.61 1429.88,-52.26 1427.46,-50.82"/>
<polygon fill="black" stroke="black" points="1429.23,-47.8 1418.94,-45.31 1425.43,-53.67 1429.23,-47.8"/>
<text text-anchor="middle" x="1533.28" y="-76.6" font-family="Times New Roman,serif" font-size="14.00">e</text>
</g>
<!-- s21&#45;&gt;s19 -->
<g id="edge99" class="edge">
<title>s21&#45;&gt;s19</title>
<path fill="none" stroke="black" d="M1722.31,-120.47C1734.51,-115.13 1749.64,-109.26 1763.78,-105.8 1836.2,-88.08 2357.96,-43.66 2503.29,-31.51"/>
<polygon fill="black" stroke="black" points="2503.81,-34.98 2513.48,-30.66 2503.23,-28 2503.81,-34.98"/>
<text text-anchor="middle" x="2034.28" y="-76.6" font-family="Times New Roman,serif" font-size="14.00">h</text>
</g>
<!-- s21&#45;&gt;s14 -->
<g id="edge44" class="edge">
<title>s21&#45;&gt;s14</title>
<path fill="none" stroke="black" d="M1673.06,-120.89C1632.29,-102.25 1550.9,-65.03 1504.76,-43.93"/>
<polygon fill="black" stroke="black" points="1506.02,-40.66 1495.48,-39.69 1503.11,-47.03 1506.02,-40.66"/>
<text text-anchor="middle" x="1602.28" y="-76.6" font-family="Times New Roman,serif" font-size="14.00">c</text>
</g>
<!-- s21&#45;&gt;s21 -->
<g id="edge121" class="edge">
<title>s21&#45;&gt;s21</title>
<path fill="none" stroke="black" d="M1723.45,-142.86C1734.13,-143.52 1743.18,-140.3 1743.18,-133.19 1743.18,-128.53 1739.28,-125.54 1733.58,-124.22"/>
<polygon fill="black" stroke="black" points="1733.66,-120.72 1723.45,-123.53 1733.19,-127.7 1733.66,-120.72"/>
<text text-anchor="middle" x="1746.68" y="-129.49" font-family="Times New Roman,serif" font-size="14.00">0</text>
</g>
<!-- s21&#45;&gt;s12 -->
<g id="edge22" class="edge">
<title>s21&#45;&gt;s12</title>
<path fill="none" stroke="black" d="M1722.63,-121.56C1734.9,-116.49 1750,-110.51 1763.78,-105.8 1814.09,-88.57 1826.79,-83.94 1878.78,-72.8 1975.56,-52.06 2091.52,-38.31 2150.04,-32.14"/>
<polygon fill="black" stroke="black" points="2150.69,-35.59 2160.28,-31.07 2149.97,-28.63 2150.69,-35.59"/>
<text text-anchor="middle" x="1882.28" y="-76.6" font-family="Times New Roman,serif" font-size="14.00">a</text>
</g>
<!-- s4&#45;&gt;s22 -->
<g id="edge126" class="edge">
<title>s4&#45;&gt;s22</title>
<path fill="none" stroke="black" d="M1774.5,-327.4C1770.32,-319.05 1765.21,-308.71 1760.78,-299.39 1756.83,-291.06 1752.66,-282.03 1748.81,-273.57"/>
<polygon fill="black" stroke="black" points="1751.95,-272.02 1744.63,-264.35 1745.57,-274.9 1751.95,-272.02"/>
<text text-anchor="middle" x="1764.28" y="-288.19" font-family="Times New Roman,serif" font-size="14.00">1</text>
</g>
<!-- s4&#45;&gt;s15 -->
<g id="edge49" class="edge">
<title>s4&#45;&gt;s15</title>
<path fill="none" stroke="black" d="M1755.83,-342.3C1706.16,-338.94 1597.37,-328.6 1510.78,-299.39 1432.07,-272.83 1423.59,-240.69 1345.78,-211.59 1312.46,-199.13 1290.35,-221.1 1267.78,-193.59 1233.35,-151.63 1254.17,-116.92 1285.78,-72.8 1289.87,-67.08 1294.57,-61.24 1299.26,-55.76"/>
<polygon fill="black" stroke="black" points="1302.07,-57.86 1306.04,-48.03 1296.81,-53.24 1302.07,-57.86"/>
<text text-anchor="middle" x="1271.78" y="-182.39" font-family="Times New Roman,serif" font-size="14.00">d</text>
</g>
<!-- s4&#45;&gt;s20 -->
<g id="edge104" class="edge">
<title>s4&#45;&gt;s20</title>
<path fill="none" stroke="black" d="M1809.37,-340.95C1856.96,-335.92 1959.85,-325.22 2046.78,-317.39 2082.03,-314.21 2646.98,-272.81 2681.78,-266.39 2766.95,-250.66 2783.38,-225.97 2868.78,-211.59 2949.96,-197.92 3159.45,-215.57 3238.78,-193.59 3252.39,-189.82 3253.44,-183.2 3266.78,-178.59 3310.71,-163.43 3339.88,-196.17 3369.78,-160.59 3392.66,-133.37 3382.93,-91.03 3371.55,-61.63"/>
<polygon fill="black" stroke="black" points="3374.71,-60.11 3367.67,-52.19 3368.24,-62.77 3374.71,-60.11"/>
<text text-anchor="middle" x="3268.78" y="-182.39" font-family="Times New Roman,serif" font-size="14.00">i</text>
</g>
<!-- s4&#45;&gt;s17 -->
<g id="edge71" class="edge">
<title>s4&#45;&gt;s17</title>
<path fill="none" stroke="black" d="M1791.89,-327.53C1813.19,-287.17 1861.39,-180.26 1819.78,-105.8 1797.43,-65.79 1746.13,-45.58 1710.71,-36.03"/>
<polygon fill="black" stroke="black" points="1711.28,-32.56 1700.72,-33.51 1709.56,-39.35 1711.28,-32.56"/>
<text text-anchor="middle" x="1839.28" y="-182.39" font-family="Times New Roman,serif" font-size="14.00">f</text>
</g>
<!-- s4&#45;&gt;s18 -->
<g id="edge82" class="edge">
<title>s4&#45;&gt;s18</title>
<path fill="none" stroke="black" d="M1798.94,-330C1808.07,-321.7 1819.32,-310.6 1827.78,-299.39 1854.56,-263.88 1841.43,-239.84 1875.78,-211.59 1896.3,-194.72 1917.08,-215.02 1932.78,-193.59 1944.41,-177.72 1948.39,-147.72 1889.78,-72.8 1881.9,-62.72 1871.15,-53.87 1860.88,-46.78"/>
<polygon fill="black" stroke="black" points="1862.71,-43.8 1852.43,-41.25 1858.88,-49.65 1862.71,-43.8"/>
<text text-anchor="middle" x="1943.28" y="-182.39" font-family="Times New Roman,serif" font-size="14.00">g</text>
</g>
<!-- s4&#45;&gt;s13 -->
<g id="edge27" class="edge">
<title>s4&#45;&gt;s13</title>
<path fill="none" stroke="black" d="M1755.96,-342.51C1665.01,-337.73 1369.73,-318.45 1292.78,-266.39 1229,-223.24 1235.63,-119.51 1244.47,-64.33"/>
<polygon fill="black" stroke="black" points="1247.95,-64.74 1246.19,-54.3 1241.05,-63.56 1247.95,-64.74"/>
<text text-anchor="middle" x="1250.78" y="-182.39" font-family="Times New Roman,serif" font-size="14.00">b</text>
</g>
<!-- s4&#45;&gt;s16 -->
<g id="edge60" class="edge">
<title>s4&#45;&gt;s16</title>
<path fill="none" stroke="black" d="M1755.8,-342.82C1696.43,-340.13 1557.07,-330.58 1523.78,-299.39 1494.5,-271.95 1533.18,-237.78 1502.78,-211.59 1467.63,-181.31 1332.67,-220.37 1294.78,-193.59 1262.45,-170.74 1266.47,-143.08 1279.78,-105.8 1286.15,-87.95 1291.18,-83.55 1306.78,-72.8 1327.61,-58.44 1338.23,-66.27 1360.78,-54.8 1363.12,-53.61 1365.47,-52.28 1367.8,-50.87"/>
<polygon fill="black" stroke="black" points="1370.09,-53.56 1376.55,-45.16 1366.27,-47.7 1370.09,-53.56"/>
<text text-anchor="middle" x="1298.28" y="-182.39" font-family="Times New Roman,serif" font-size="14.00">e</text>
</g>
<!-- s4&#45;&gt;s19 -->
<g id="edge93" class="edge">
<title>s4&#45;&gt;s19</title>
<path fill="none" stroke="black" d="M1809.46,-341.31C1887.68,-333.93 2112.89,-311.84 2143.78,-299.39 2204.08,-275.09 2199.78,-234.08 2260.78,-211.59 2290.76,-200.54 2525.91,-216.88 2547.78,-193.59 2580.43,-158.83 2567.75,-99.6 2554.83,-62.31"/>
<polygon fill="black" stroke="black" points="2558.1,-61.07 2551.39,-52.87 2551.52,-63.47 2558.1,-61.07"/>
<text text-anchor="middle" x="2562.28" y="-182.39" font-family="Times New Roman,serif" font-size="14.00">h</text>
</g>
<!-- s4&#45;&gt;s14 -->
<g id="edge38" class="edge">
<title>s4&#45;&gt;s14</title>
<path fill="none" stroke="black" d="M1759.73,-335.06C1725.94,-321.93 1661.37,-295.48 1609.78,-266.39 1572.56,-245.4 1570.92,-226.25 1530.78,-211.59 1429.17,-174.48 1342.67,-256.58 1292.78,-160.59 1281.55,-138.98 1278.79,-125.73 1292.78,-105.8 1331.06,-51.25 1374.78,-85.77 1433.78,-54.8 1436.1,-53.58 1438.45,-52.23 1440.77,-50.81"/>
<polygon fill="black" stroke="black" points="1443.07,-53.48 1449.5,-45.06 1439.22,-47.63 1443.07,-53.48"/>
<text text-anchor="middle" x="1322.28" y="-182.39" font-family="Times New Roman,serif" font-size="14.00">c</text>
</g>
<!-- s4&#45;&gt;s21 -->
<g id="edge115" class="edge">
<title>s4&#45;&gt;s21</title>
<path fill="none" stroke="black" d="M1757.63,-337.74C1737.6,-331.56 1710.56,-319.88 1695.78,-299.39 1668.61,-261.7 1676.63,-205.55 1686.18,-169.4"/>
<polygon fill="black" stroke="black" points="1689.68,-169.9 1689.02,-159.32 1682.94,-168 1689.68,-169.9"/>
<text text-anchor="middle" x="1684.28" y="-235.29" font-family="Times New Roman,serif" font-size="14.00">0</text>
</g>
<!-- s4&#45;&gt;s12 -->
<g id="edge16" class="edge">
<title>s4&#45;&gt;s12</title>
<path fill="none" stroke="black" d="M1802.23,-332.18C1815.44,-323.85 1832.96,-311.93 1846.78,-299.39 1861.03,-286.46 1864,-282.31 1874.78,-266.39 1890.23,-243.57 1883.15,-229.86 1903.78,-211.59 1920.52,-196.76 1929.9,-201.61 1950.78,-193.59 1968.12,-186.94 1972.12,-184.34 1989.78,-178.59 2108.37,-139.98 2139.32,-134.09 2260.78,-105.8 2300.93,-96.44 2325.61,-119.65 2351.78,-87.8 2387.6,-44.2 2284.41,-32.6 2225.58,-29.51"/>
<polygon fill="black" stroke="black" points="2225.66,-26.01 2215.51,-29.05 2225.33,-33.01 2225.66,-26.01"/>
<text text-anchor="middle" x="1993.28" y="-182.39" font-family="Times New Roman,serif" font-size="14.00">a</text>
</g>
</g>
</svg>
