<?xml version="1.0" encoding="UTF-8" standalone="no"?>
<!DOCTYPE svg PUBLIC "-//W3C//DTD SVG 1.1//EN"
 "http://www.w3.org/Graphics/SVG/1.1/DTD/svg11.dtd">
<!-- Generated by graphviz version 3.0.0 (20220226.1711)
 -->
<!-- Pages: 1 -->
<svg width="278pt" height="650pt"
 viewBox="0.00 0.00 278.00 650.00" xmlns="http://www.w3.org/2000/svg" xmlns:xlink="http://www.w3.org/1999/xlink">
<g id="graph0" class="graph" transform="scale(1 1) rotate(0) translate(4 646)">
<polygon fill="white" stroke="transparent" points="-4,4 -4,-646 274,-646 274,4 -4,4"/>
<!-- fake0 -->
<g id="node1" class="node">
<title>fake0</title>
</g>
<!-- 0 -->
<g id="node18" class="node">
<title>0</title>
<ellipse fill="none" stroke="black" cx="134" cy="-551" rx="27" ry="18"/>
<text text-anchor="middle" x="134" y="-547.3" font-family="Times New Roman,serif" font-size="14.00">0</text>
</g>
<!-- fake0&#45;&gt;0 -->
<g id="edge1" class="edge">
<title>fake0&#45;&gt;0</title>
<path fill="none" stroke="black" stroke-width="2" d="M134,-605.81C134,-597.79 134,-588.04 134,-579.07"/>
<polygon fill="black" stroke="black" stroke-width="2" points="137.5,-579.03 134,-569.03 130.5,-579.03 137.5,-579.03"/>
</g>
<!-- 15 -->
<g id="node2" class="node">
<title>15</title>
<ellipse fill="none" stroke="black" cx="190" cy="-116" rx="27" ry="18"/>
<text text-anchor="middle" x="190" y="-112.3" font-family="Times New Roman,serif" font-size="14.00">15</text>
</g>
<!-- 16 -->
<g id="node13" class="node">
<title>16</title>
<ellipse fill="none" stroke="black" cx="190" cy="-23.5" rx="19.5" ry="19.5"/>
<ellipse fill="none" stroke="black" cx="190" cy="-23.5" rx="23.5" ry="23.5"/>
<text text-anchor="middle" x="190" y="-19.8" font-family="Times New Roman,serif" font-size="14.00">16</text>
</g>
<!-- 15&#45;&gt;16 -->
<g id="edge19" class="edge">
<title>15&#45;&gt;16</title>
<path fill="none" stroke="black" d="M190,-97.97C190,-86.55 190,-71.13 190,-57.36"/>
<polygon fill="black" stroke="black" points="193.5,-57.25 190,-47.25 186.5,-57.25 193.5,-57.25"/>
<text text-anchor="middle" x="210" y="-68.8" font-family="Times New Roman,serif" font-size="14.00">epsilon</text>
</g>
<!-- 7 -->
<g id="node3" class="node">
<title>7</title>
<ellipse fill="none" stroke="black" cx="87" cy="-116" rx="27" ry="18"/>
<text text-anchor="middle" x="87" y="-112.3" font-family="Times New Roman,serif" font-size="14.00">7</text>
</g>
<!-- 8 -->
<g id="node10" class="node">
<title>8</title>
<ellipse fill="none" stroke="black" cx="87" cy="-23.5" rx="18" ry="18"/>
<ellipse fill="none" stroke="black" cx="87" cy="-23.5" rx="22" ry="22"/>
<text text-anchor="middle" x="87" y="-19.8" font-family="Times New Roman,serif" font-size="14.00">8</text>
</g>
<!-- 7&#45;&gt;8 -->
<g id="edge11" class="edge">
<title>7&#45;&gt;8</title>
<path fill="none" stroke="black" d="M87,-97.97C87,-86.14 87,-70.02 87,-55.9"/>
<polygon fill="black" stroke="black" points="90.5,-55.59 87,-45.59 83.5,-55.59 90.5,-55.59"/>
<text text-anchor="middle" x="107" y="-68.8" font-family="Times New Roman,serif" font-size="14.00">epsilon</text>
</g>
<!-- 5 -->
<g id="node4" class="node">
<title>5</title>
<ellipse fill="none" stroke="black" cx="27" cy="-290" rx="27" ry="18"/>
<text text-anchor="middle" x="27" y="-286.3" font-family="Times New Roman,serif" font-size="14.00">5</text>
</g>
<!-- 6 -->
<g id="node9" class="node">
<title>6</title>
<ellipse fill="none" stroke="black" cx="27" cy="-203" rx="27" ry="18"/>
<text text-anchor="middle" x="27" y="-199.3" font-family="Times New Roman,serif" font-size="14.00">6</text>
</g>
<!-- 5&#45;&gt;6 -->
<g id="edge8" class="edge">
<title>5&#45;&gt;6</title>
<path fill="none" stroke="black" d="M27,-271.8C27,-260.16 27,-244.54 27,-231.23"/>
<polygon fill="black" stroke="black" points="30.5,-231.17 27,-221.17 23.5,-231.17 30.5,-231.17"/>
<text text-anchor="middle" x="31" y="-242.8" font-family="Times New Roman,serif" font-size="14.00">b</text>
</g>
<!-- 4 -->
<g id="node5" class="node">
<title>4</title>
<ellipse fill="none" stroke="black" cx="99" cy="-203" rx="27" ry="18"/>
<text text-anchor="middle" x="99" y="-199.3" font-family="Times New Roman,serif" font-size="14.00">4</text>
</g>
<!-- 4&#45;&gt;7 -->
<g id="edge9" class="edge">
<title>4&#45;&gt;7</title>
<path fill="none" stroke="black" d="M96.57,-184.8C94.93,-173.16 92.72,-157.54 90.85,-144.23"/>
<polygon fill="black" stroke="black" points="94.29,-143.58 89.42,-134.17 87.36,-144.56 94.29,-143.58"/>
<text text-anchor="middle" x="113" y="-155.8" font-family="Times New Roman,serif" font-size="14.00">epsilon</text>
</g>
<!-- 10 -->
<g id="node6" class="node">
<title>10</title>
<ellipse fill="none" stroke="black" cx="171" cy="-377" rx="27" ry="18"/>
<text text-anchor="middle" x="171" y="-373.3" font-family="Times New Roman,serif" font-size="14.00">10</text>
</g>
<!-- 13 -->
<g id="node12" class="node">
<title>13</title>
<ellipse fill="none" stroke="black" cx="171" cy="-290" rx="27" ry="18"/>
<text text-anchor="middle" x="171" y="-286.3" font-family="Times New Roman,serif" font-size="14.00">13</text>
</g>
<!-- 10&#45;&gt;13 -->
<g id="edge13" class="edge">
<title>10&#45;&gt;13</title>
<path fill="none" stroke="black" d="M171,-358.8C171,-347.16 171,-331.54 171,-318.23"/>
<polygon fill="black" stroke="black" points="174.5,-318.17 171,-308.17 167.5,-318.17 174.5,-318.17"/>
<text text-anchor="middle" x="191" y="-329.8" font-family="Times New Roman,serif" font-size="14.00">epsilon</text>
</g>
<!-- 11 -->
<g id="node17" class="node">
<title>11</title>
<ellipse fill="none" stroke="black" cx="243" cy="-290" rx="27" ry="18"/>
<text text-anchor="middle" x="243" y="-286.3" font-family="Times New Roman,serif" font-size="14.00">11</text>
</g>
<!-- 10&#45;&gt;11 -->
<g id="edge14" class="edge">
<title>10&#45;&gt;11</title>
<path fill="none" stroke="black" d="M189.5,-363.78C197.94,-357.62 207.67,-349.62 215,-341 221.11,-333.81 226.54,-325.08 230.95,-316.94"/>
<polygon fill="black" stroke="black" points="234.2,-318.28 235.64,-307.78 227.97,-315.09 234.2,-318.28"/>
<text text-anchor="middle" x="245" y="-329.8" font-family="Times New Roman,serif" font-size="14.00">epsilon</text>
</g>
<!-- 1 -->
<g id="node7" class="node">
<title>1</title>
<ellipse fill="none" stroke="black" cx="99" cy="-464" rx="27" ry="18"/>
<text text-anchor="middle" x="99" y="-460.3" font-family="Times New Roman,serif" font-size="14.00">1</text>
</g>
<!-- 2 -->
<g id="node8" class="node">
<title>2</title>
<ellipse fill="none" stroke="black" cx="99" cy="-377" rx="27" ry="18"/>
<text text-anchor="middle" x="99" y="-373.3" font-family="Times New Roman,serif" font-size="14.00">2</text>
</g>
<!-- 1&#45;&gt;2 -->
<g id="edge4" class="edge">
<title>1&#45;&gt;2</title>
<path fill="none" stroke="black" d="M99,-445.8C99,-434.16 99,-418.54 99,-405.23"/>
<polygon fill="black" stroke="black" points="102.5,-405.17 99,-395.17 95.5,-405.17 102.5,-405.17"/>
<text text-anchor="middle" x="119" y="-416.8" font-family="Times New Roman,serif" font-size="14.00">epsilon</text>
</g>
<!-- 2&#45;&gt;5 -->
<g id="edge6" class="edge">
<title>2&#45;&gt;5</title>
<path fill="none" stroke="black" d="M80.5,-363.78C72.06,-357.62 62.33,-349.62 55,-341 48.89,-333.81 43.46,-325.08 39.05,-316.94"/>
<polygon fill="black" stroke="black" points="42.03,-315.09 34.36,-307.78 35.8,-318.28 42.03,-315.09"/>
<text text-anchor="middle" x="75" y="-329.8" font-family="Times New Roman,serif" font-size="14.00">epsilon</text>
</g>
<!-- 3 -->
<g id="node11" class="node">
<title>3</title>
<ellipse fill="none" stroke="black" cx="99" cy="-290" rx="27" ry="18"/>
<text text-anchor="middle" x="99" y="-286.3" font-family="Times New Roman,serif" font-size="14.00">3</text>
</g>
<!-- 2&#45;&gt;3 -->
<g id="edge5" class="edge">
<title>2&#45;&gt;3</title>
<path fill="none" stroke="black" d="M99,-358.8C99,-347.16 99,-331.54 99,-318.23"/>
<polygon fill="black" stroke="black" points="102.5,-318.17 99,-308.17 95.5,-318.17 102.5,-318.17"/>
<text text-anchor="middle" x="119" y="-329.8" font-family="Times New Roman,serif" font-size="14.00">epsilon</text>
</g>
<!-- 6&#45;&gt;7 -->
<g id="edge10" class="edge">
<title>6&#45;&gt;7</title>
<path fill="none" stroke="black" d="M31.94,-185.29C35.44,-175.1 40.79,-162.12 48,-152 51.88,-146.55 56.74,-141.34 61.71,-136.69"/>
<polygon fill="black" stroke="black" points="64.26,-139.11 69.47,-129.88 59.65,-133.85 64.26,-139.11"/>
<text text-anchor="middle" x="68" y="-155.8" font-family="Times New Roman,serif" font-size="14.00">epsilon</text>
</g>
<!-- 3&#45;&gt;4 -->
<g id="edge7" class="edge">
<title>3&#45;&gt;4</title>
<path fill="none" stroke="black" d="M99,-271.8C99,-260.16 99,-244.54 99,-231.23"/>
<polygon fill="black" stroke="black" points="102.5,-231.17 99,-221.17 95.5,-231.17 102.5,-231.17"/>
<text text-anchor="middle" x="102.5" y="-242.8" font-family="Times New Roman,serif" font-size="14.00">a</text>
</g>
<!-- 14 -->
<g id="node14" class="node">
<title>14</title>
<ellipse fill="none" stroke="black" cx="171" cy="-203" rx="27" ry="18"/>
<text text-anchor="middle" x="171" y="-199.3" font-family="Times New Roman,serif" font-size="14.00">14</text>
</g>
<!-- 13&#45;&gt;14 -->
<g id="edge16" class="edge">
<title>13&#45;&gt;14</title>
<path fill="none" stroke="black" d="M171,-271.8C171,-260.16 171,-244.54 171,-231.23"/>
<polygon fill="black" stroke="black" points="174.5,-231.17 171,-221.17 167.5,-231.17 174.5,-231.17"/>
<text text-anchor="middle" x="175" y="-242.8" font-family="Times New Roman,serif" font-size="14.00">d</text>
</g>
<!-- 14&#45;&gt;15 -->
<g id="edge18" class="edge">
<title>14&#45;&gt;15</title>
<path fill="none" stroke="black" d="M172.6,-184.72C173.7,-175.02 175.43,-162.74 178,-152 178.69,-149.13 179.51,-146.16 180.41,-143.22"/>
<polygon fill="black" stroke="black" points="183.79,-144.13 183.6,-133.54 177.14,-141.94 183.79,-144.13"/>
<text text-anchor="middle" x="198" y="-155.8" font-family="Times New Roman,serif" font-size="14.00">epsilon</text>
</g>
<!-- 9 -->
<g id="node15" class="node">
<title>9</title>
<ellipse fill="none" stroke="black" cx="171" cy="-464" rx="27" ry="18"/>
<text text-anchor="middle" x="171" y="-460.3" font-family="Times New Roman,serif" font-size="14.00">9</text>
</g>
<!-- 9&#45;&gt;10 -->
<g id="edge12" class="edge">
<title>9&#45;&gt;10</title>
<path fill="none" stroke="black" d="M171,-445.8C171,-434.16 171,-418.54 171,-405.23"/>
<polygon fill="black" stroke="black" points="174.5,-405.17 171,-395.17 167.5,-405.17 174.5,-405.17"/>
<text text-anchor="middle" x="191" y="-416.8" font-family="Times New Roman,serif" font-size="14.00">epsilon</text>
</g>
<!-- 12 -->
<g id="node16" class="node">
<title>12</title>
<ellipse fill="none" stroke="black" cx="243" cy="-203" rx="27" ry="18"/>
<text text-anchor="middle" x="243" y="-199.3" font-family="Times New Roman,serif" font-size="14.00">12</text>
</g>
<!-- 12&#45;&gt;15 -->
<g id="edge17" class="edge">
<title>12&#45;&gt;15</title>
<path fill="none" stroke="black" d="M235.73,-185.31C231.14,-175.35 224.8,-162.62 218,-152 215.36,-147.87 212.33,-143.66 209.25,-139.65"/>
<polygon fill="black" stroke="black" points="211.97,-137.44 203,-131.81 206.49,-141.81 211.97,-137.44"/>
<text text-anchor="middle" x="246" y="-155.8" font-family="Times New Roman,serif" font-size="14.00">epsilon</text>
</g>
<!-- 11&#45;&gt;12 -->
<g id="edge15" class="edge">
<title>11&#45;&gt;12</title>
<path fill="none" stroke="black" d="M243,-271.8C243,-260.16 243,-244.54 243,-231.23"/>
<polygon fill="black" stroke="black" points="246.5,-231.17 243,-221.17 239.5,-231.17 246.5,-231.17"/>
<text text-anchor="middle" x="246.5" y="-242.8" font-family="Times New Roman,serif" font-size="14.00">c</text>
</g>
<!-- 0&#45;&gt;1 -->
<g id="edge3" class="edge">
<title>0&#45;&gt;1</title>
<path fill="none" stroke="black" d="M119.5,-535.49C114.42,-529.6 109.2,-522.43 106,-515 102.98,-507.99 101.21,-499.98 100.18,-492.44"/>
<polygon fill="black" stroke="black" points="103.64,-491.87 99.17,-482.27 96.67,-492.57 103.64,-491.87"/>
<text text-anchor="middle" x="126" y="-503.8" font-family="Times New Roman,serif" font-size="14.00">epsilon</text>
</g>
<!-- 0&#45;&gt;9 -->
<g id="edge2" class="edge">
<title>0&#45;&gt;9</title>
<path fill="none" stroke="black" d="M141.13,-533.61C146.37,-521.57 153.6,-504.98 159.63,-491.12"/>
<polygon fill="black" stroke="black" points="162.98,-492.19 163.76,-481.63 156.56,-489.4 162.98,-492.19"/>
<text text-anchor="middle" x="174" y="-503.8" font-family="Times New Roman,serif" font-size="14.00">epsilon</text>
</g>
</g>
</svg>
